<svg xmlns="http://www.w3.org/2000/svg" viewBox="0 0 1815.76 358.68"><defs><style>.cls-1{fill:#555;}.cls-2,.cls-3,.cls-4{fill:none;stroke:#555;stroke-linecap:round;stroke-miterlimit:10;stroke-width:6px;}.cls-3{stroke-dasharray:0.95 12.38 0.95 13.34;}.cls-4{stroke-dasharray:0.95 12.38 0.95 12.38 0.95 13.34;}</style></defs><g id="comp"><path class="cls-1" d="M26,70.06A416.27,416.27,0,0,0,22.72,113c-.36,14.44.08,28.89.34,43.33q.78,43.32,1.57,86.65c.07,3.88.1,7.77.23,11.65a44,44,0,0,0,1.64,11.65c2,6.36,6.77,12.41,13.61,13.76a3.54,3.54,0,0,0,4.24-2.4,3.49,3.49,0,0,0-2.41-4.24,12.37,12.37,0,0,1-1.92-.53c-.6-.23.63.37-.34-.15-.32-.18-.64-.34-.94-.53s-.41-.26-.61-.39c-.89-.58.34.35-.46-.35a17.54,17.54,0,0,1-1.57-1.54,14.29,14.29,0,0,1-1.79-2.65,15,15,0,0,1-1.43-3.67c-1.69-6.17-1.22-13-1.34-19.36l-.77-42.58L30,159.28c-.25-14-.68-28.09-.48-42.13A416.62,416.62,0,0,1,32.9,70.06c.24-1.84-1.75-3.44-3.44-3.44-2.06,0-3.21,1.59-3.45,3.44Z"/><path class="cls-1" d="M31.66,70.93c.25.3-.27-.5-.08-.07a4.44,4.44,0,0,1-.21-.71c0,.07,0,.43,0,0a3.22,3.22,0,0,1,.25-1.91,5.61,5.61,0,0,1,2.74-2.93c3.46-1.94,8-2.24,11.83-2.86,9.54-1.53,19.15-2.56,28.78-3.26,19.56-1.43,39.18-1.46,58.78-1.19,19.9.27,39.8.69,59.7,1s39.86.6,59.78,1.22c9.91.3,19.83.73,29.73,1.39,4.9.33,9.8.71,14.69,1.17,2.54.23,5.08.49,7.61.76l3.38.38,1.69.2a6,6,0,0,1,1.1.19c.37.09.74.18,1.1.3.51.17.05,0,.52.23.23.13.43.08.14,0,0,0,.48.21.17.14-.08,0-.14-.26-.15-.33,0,.22.11.46.14.67.27,1.84,2.6,2.86,4.24,2.41,2-.55,2.67-2.39,2.4-4.24-.69-4.73-6-5.87-9.94-6.34-5.16-.62-10.33-1.14-15.51-1.59-10.44-.91-20.92-1.51-31.4-1.93-20.93-.84-41.88-1.07-62.83-1.44s-41.94-.81-62.92-1.13c-20.62-.32-41.28-.37-61.86,1.1-10.34.74-20.66,1.87-30.89,3.51-4.51.72-9.25,1.25-13.36,3.38a12.19,12.19,0,0,0-6.82,10.44,9.37,9.37,0,0,0,2.34,6.21,3.48,3.48,0,0,0,4.87,0,3.52,3.52,0,0,0,0-4.87Z"/><path class="cls-1" d="M312.89,66.73c2.29,15.9,2.37,32.05,2.07,48.08-.31,16.31-1,32.59-.9,48.9l.17,51.1.08,25.27.05,12.92c0,3.36.22,6.58-.57,9.33-.06.21-.56,1.56-.27.89a11.08,11.08,0,0,1-.78,1.49c-.15.23-.3.45-.46.67.08-.11.47-.49.05-.07s-.84.86-1.29,1.26c.64-.57-.34.23-.56.36-.44.28-.92.49-1.37.75-.15.07-.61.24.09,0l-.76.28a17,17,0,0,1-1.72.51q-.77.19-1.53.33c-.22,0-1.63.25-.83.15-1.22.16-2.45.25-3.67.32-2.47.13-4.94.13-7.4.15-7.41.07-14.83.57-22.24.88q-12.63.53-25.28,1-51.12,1.75-102.28,2c-17,.1-34-.08-51-.06-15.1,0-30.52,1.37-45.41-1.77a69.54,69.54,0,0,1-10.48-3.08c-1.74-.67-3.78.74-4.24,2.4A3.53,3.53,0,0,0,34.77,275c14.76,5.67,30.91,5.52,46.48,5.24,16.82-.3,33.64,0,50.46,0q52-.12,103.94-1.76,26.13-.82,52.26-2c5-.23,10,0,14.94-.45s9.86-1.51,13.54-5c4.57-4.27,4.88-10.5,4.86-16.34l-.09-25.83L321,176.63c-.06-16.78.1-33.51.57-50.28.46-16.36.82-32.78-.59-49.1q-.54-6.19-1.43-12.35c-.27-1.84-2.61-2.86-4.24-2.41-2,.55-2.67,2.39-2.41,4.24Z"/><path class="cls-1" d="M44.8,85.44Q44.89,112.7,45,140q.07,28.89.16,57.78,0,14.89.1,29.79a3.45,3.45,0,1,0,6.89,0Q52,200.28,51.94,173q-.07-28.89-.16-57.78,0-14.9-.1-29.79a3.44,3.44,0,1,0-6.88,0Z"/><path class="cls-1" d="M46.68,90.71c16.72.61,33.18-2.89,49.61-5.41a449.07,449.07,0,0,1,50-4.39c17-.7,34.12-.71,51.17-.28s34,1.31,50.91,2.39q12.71.81,25.42,1.74l12.71.93c3.65.27,7.26.29,10.61,1.16a9.59,9.59,0,0,1,3.65,1.63,3.54,3.54,0,0,0,4.87,0c1.21-1.21,1.45-3.69,0-4.87-3.19-2.59-6.81-3.62-10.83-4.12s-7.91-.66-11.86-.95q-13-1-25.93-1.84c-17.12-1.15-34.25-2.14-51.4-2.71s-34.47-.74-51.7-.24c-17.07.5-34.19,1.56-51.14,3.74-16.6,2.13-33,6.07-49.84,6.39-2.07,0-4.13,0-6.2-.06a3.45,3.45,0,0,0,0,6.89Z"/><path class="cls-1" d="M296.81,78.24c-3.48,7.19-2.27,15.59-1.2,23.21.27,1.9.56,3.8.82,5.7.06.41,0,0,0,0l.09.69c.05.44.11.89.15,1.34q.13,1.19.21,2.37c.33,5,.55,10,.75,14.95q1.25,30.24.26,60.53-.56,17.14-1.82,34.27a3.45,3.45,0,0,0,6.89,0q2.21-29.89,2.25-59.89,0-15-.5-30c-.32-9-.49-18.05-1.76-27-.62-4.34-1.23-7.84-1.47-12.31a38.92,38.92,0,0,1,.11-6c0-.08.1-.8,0-.4s.11-.57.1-.55c.08-.43.18-.87.29-1.29s.23-.83.37-1.24c.06-.2.14-.4.21-.6-.21.56.08-.15.16-.32A3.53,3.53,0,0,0,301.52,77a3.47,3.47,0,0,0-4.71,1.24Z"/><path class="cls-1" d="M44.73,226.51c14.25-.67,28.51-1.1,42.76-1.73,17.48-.77,35-1.74,52.46-.89,8.84.42,17.66,1.5,26.53,1.52s17.84-1.08,26.75-1.71c17.55-1.23,35.13-.18,52.7-.26A226.38,226.38,0,0,0,272.35,222c4.31-.52,8.57-1.27,12.84-2a43.57,43.57,0,0,1,11.45-.86,15.9,15.9,0,0,1,4.67,1.12c1.71.73,3.69.51,4.71-1.24.85-1.45.49-4-1.23-4.71-8.09-3.46-16.45-1.85-24.8-.34a175.77,175.77,0,0,1-25.81,2.47c-17.72.53-35.44-.67-53.16,0-9,.33-17.91,1.41-26.89,1.9s-17.88-.18-26.84-.84c-18-1.33-36-.67-54,.17-14.59.68-29.2,1.15-43.8,1.78l-4.76.21a3.51,3.51,0,0,0-3.44,3.45,3.47,3.47,0,0,0,3.44,3.44Z"/><path class="cls-1" d="M173.09,242.11c-5.63-1.14-12,1.17-14.83,6.39a12.2,12.2,0,0,0,3.2,15.41c4.75,3.53,12.27,3.17,17.4.69,5.83-2.81,6.17-10.63,3.23-15.68a13.13,13.13,0,0,0-17.91-4.47c-1.91,1.13-.18,4.11,1.73,3a9.72,9.72,0,0,1,12.3,1.91c2.51,3,3.67,9.17-.07,11.72a13.68,13.68,0,0,1-6.46,1.87,13.33,13.33,0,0,1-6.84-1,8.52,8.52,0,0,1-4.15-10.44c1.5-4.63,6.92-7,11.48-6.07,2.17.43,3.09-2.89.92-3.32Z"/><path class="cls-1" d="M173.9,239.76A16,16,0,0,1,184.15,245a12.62,12.62,0,0,1,1.19,1.5,3.58,3.58,0,0,1,.4.73s.1.44.08.25c0,.21-.09.18,0,.06a1.73,1.73,0,0,0,3,1.74c1.17-2-.07-4.08-1.34-5.7a19.5,19.5,0,0,0-13.54-7.24,1.73,1.73,0,0,0-1.72,1.72,1.76,1.76,0,0,0,1.72,1.72Z"/><path class="cls-1" d="M182.33,236.82c.86.28,1.73.55,2.58.84l1.09.41c-.57-.21.06,0,.2.1l.49.26c.15.08.29.17.43.26l.21.14c.32.23-.14-.12-.05,0,.26.24.53.47.77.74l.17.21c-.36-.37-.11-.14,0,0s.23.35.34.53.19.36.28.54l.14.3c.07.17.06.14,0-.1,0,.07.05.14.08.22a1.77,1.77,0,0,0,2.12,1.2,1.73,1.73,0,0,0,1.2-2.12,9,9,0,0,0-3.73-4.75,26.65,26.65,0,0,0-5.33-2,1.72,1.72,0,0,0-2.12,1.2,1.76,1.76,0,0,0,1.2,2.12Z"/><path class="cls-1" d="M234.9,320.77a117.24,117.24,0,0,1-21.33,1.63c-7.45.06-14.9,0-22.35,0q-22.25,0-44.49,0-11.25,0-22.5.07c-1.53,0-3.06.05-4.59,0a7.48,7.48,0,0,1-3.57-.68s-1-.74-.48-.3c-.16-.13-.32-.28-.47-.42s-.68-.84-.21-.17c-.15-.21-.27-.44-.41-.66s0-.36,0,.15a4,4,0,0,0-.17-.68c.35,1.23-.12,0,.05,0-.14,0,.36-1.28,0,0,.07-.23.12-.47.18-.7s.4-.87,0-.09a12.57,12.57,0,0,1,.62-1.14c.12-.18.92-1.23.42-.63.39-.48.8-.94,1.23-1.39.71-.72,1.47-1.41,2.25-2.06l.66-.54c.73-.59-.56.41.18-.14l1.26-.92c3.55-2.49,7.14-4.82,10.45-7.65,8.11-7,17.86-18.29,14-29.86a3.54,3.54,0,0,0-4.24-2.41,3.49,3.49,0,0,0-2.41,4.24,13.19,13.19,0,0,1,.48,1.74c0,.14.13,1.1.06.26,0,.19,0,.39.05.59a14.93,14.93,0,0,1,0,1.77c0,.29,0,.59-.08.88.11-.82-.05.17-.07.27a20.33,20.33,0,0,1-1,3.23c-.35,1,.31-.58-.14.35-.14.29-.27.58-.42.87-.29.58-.61,1.16-.94,1.72a31.77,31.77,0,0,1-4.36,5.86,61.35,61.35,0,0,1-5.66,5.51c-.9.78-1.82,1.53-2.76,2.26l-.29.22-.6.45c-.51.37-1,.74-1.54,1.1-1.52,1-3.11,2-4.61,3.1-3.73,2.71-8,6.16-9.24,10.81a8.36,8.36,0,0,0,1.26,7.19,11.91,11.91,0,0,0,8.72,4.64,92.15,92.15,0,0,0,10.38.09l11.5,0q23,0,46,0c8.47,0,16.95,0,25.42,0s17.15-.27,25.59-1.89a3.46,3.46,0,0,0,2.4-4.23,3.51,3.51,0,0,0-4.23-2.41Z"/><path class="cls-1" d="M113.07,317.42c16.9,2.22,33.87-.28,50.76-1.21,15-.83,30.1-1.28,45.15-1.5,8.21-.11,16.42-.12,24.63.14a3.45,3.45,0,1,0,0-6.89c-15-.47-29.94-.13-44.9.36-7.27.24-14.54.54-21.81.85-8.45.37-16.88,1.2-25.32,1.75-9.5.62-19.05.86-28.51-.39-1.84-.24-3.44,1.76-3.44,3.45,0,2.06,1.59,3.2,3.44,3.44Z"/><path class="cls-1" d="M138.92,304.53a2,2,0,0,0-1.84-.5,2,2,0,0,0-1.31,1.34,1.72,1.72,0,0,0,1.2,2.12,43.9,43.9,0,0,0,5.95.46c1,0,1.92,0,2.87-.1l1.25-.1.6,0h.55a1.72,1.72,0,1,0,.91-3.32c-1.89-.32-3.83.05-5.74.07a38.14,38.14,0,0,1-5.48-.33l1.21,2.12,0-.09-.8,1,.08-.05-.87.24h.1l-1.22-.5.07,0a1.78,1.78,0,0,0,2.44,0,1.74,1.74,0,0,0,0-2.43Z"/><path class="cls-1" d="M295,260.78c.26,1.84,2.48,1.94,3.9,1.9a14.29,14.29,0,0,0,4.39-.74,9.46,9.46,0,0,0,5.87-5.49,1.73,1.73,0,0,0-1.21-2.12,1.76,1.76,0,0,0-2.11,1.2c-.05.12-.09.21,0,0a2.59,2.59,0,0,1-.14.29,5,5,0,0,1-.38.63s-.2.27-.1.15-.11.11-.12.14-.3.32-.46.47l-.24.22c-.07.06-.28.23-.09.09-.17.13-.36.25-.54.37a8.4,8.4,0,0,1-1.13.6,9.7,9.7,0,0,1-1.37.42,9.3,9.3,0,0,1-1.37.23c-.52.05-1,.07-1.57.07h-.49c-.07,0-.34-.07-.13,0s.13,0,0,0-.08,0,0,0a.54.54,0,0,1,.34.39c.21.4.28.48.23.22a1.73,1.73,0,0,0-2.12-1.2,1.78,1.78,0,0,0-1.2,2.12Z"/><path class="cls-1" d="M297.57,257.91a7.31,7.31,0,0,0,8-7.5,1.72,1.72,0,0,0-3.44,0c0,.2,0,.39,0,.59s-.11.42,0-.07a2.17,2.17,0,0,0,0,.25,10.27,10.27,0,0,1-.32,1.08c0-.12.15-.34,0-.09,0,.08-.08.17-.13.26s-.18.31-.28.46l-.17.24.15-.19-.13.15a3.5,3.5,0,0,1-.38.39l-.18.17c-.11.09-.35.21,0,0-.16.09-.3.21-.46.31l-.49.25c-.31.16.35-.12,0,0l-.28.1a5.36,5.36,0,0,1-.54.14,2.47,2.47,0,0,1-.29.06c-.22.05.42,0,.11,0a6.12,6.12,0,0,1-1.21,0,1.73,1.73,0,0,0-1.21.51,1.7,1.7,0,0,0,0,2.43,1.92,1.92,0,0,0,1.21.51Z"/><path class="cls-1" d="M205.72,277c1.05,7.65,2.43,15.43,7.34,21.66,2.6,3.3,6.13,5.86,9.32,8.55,3.42,2.89,6.85,5.75,10.24,8.65,1.54,1.33,2.85,2.57,3.14,4.47,0-.09,0-.3,0,.1a7.08,7.08,0,0,1,0,1c0-.32,0,0,0,0-.14.43,0,.27.53-.48.1-.44.31-.65.62-.65-.13-.13-1.42.19-1.64.21l-2.1.28c-1.84.24-3.44,1.41-3.44,3.44,0,1.68,1.59,3.69,3.44,3.45l3.5-.46c1.54-.2,3.08-.32,4.26-1.45,2-1.89,2-5,1.44-7.5-1-4.91-5.52-7.86-9.11-10.89s-7.46-6.25-11.14-9.42a26.35,26.35,0,0,1-4.34-4.47,21.82,21.82,0,0,1-2.5-4.79,63.89,63.89,0,0,1-2.91-13.56c-.25-1.85-2.61-2.86-4.23-2.41-2,.55-2.66,2.39-2.41,4.24Z"/></g><g id="cloud"><path class="cls-1" d="M765.6,298.29c13.86-.69,27.55-2.37,39.54-9.92,9.86-6.21,17.76-15.08,24-24.84a136.56,136.56,0,0,0,14.71-32.44,143.72,143.72,0,0,0,6.81-37.61c1-26-6.24-53.17-23.78-72.89-13.71-15.41-33.15-25.79-53.41-29.37-19.89-3.51-41.3-.61-58.09,11.16a73.49,73.49,0,0,0-6.15,4.84l5,1.32c-8.43-20.31-25.18-35.94-45.06-45-22.52-10.23-47.63-11.48-71.69-6.64a182.52,182.52,0,0,0-69,30.28c-18.55,13.24-34.88,31.05-41.75,53.18-6.29,20.26-4.75,44.22,7.85,61.82a59.59,59.59,0,0,0,5.21,6.33l2.92-5c-23.68-4.3-47.6,11.25-56,33.29A42,42,0,0,0,447.78,270c4.7,9.73,13.44,17.07,22.93,21.93a86.26,86.26,0,0,0,33.39,8.91c8,.54,16.06.32,24,.4q12.42.15,24.83.22c33.45.22,66.9.28,100.34,0,33.28-.32,66.59-.85,99.83-2.5l12.45-.62c3.84-.19,3.87-6.19,0-6q-47.82,2.32-95.67,2.92c-32.15.45-64.3.47-96.45.34q-24-.09-48.09-.36c-13-.15-25.86.21-38.48-3.37-9.93-2.81-19.67-7.52-27-15a35,35,0,0,1-10.1-27.14c1.49-21.59,22-40.25,43.35-40.94a37,37,0,0,1,7.86.55,3,3,0,0,0,2.92-5c-13.93-14.72-17.44-36.5-13.22-55.83,4.62-21.2,18.57-38.73,35.27-52,18.3-14.54,40.46-25.24,63-31.36,22.84-6.21,47.4-7.22,69.93.76,19.07,6.75,36.44,19.75,46.3,37.64a67.54,67.54,0,0,1,3.22,6.63c.88,2.12,3.18,2.93,5,1.32,14.37-12.58,33.72-17.12,52.45-15.28a89,89,0,0,1,51.57,23.37c17.44,16.4,26.09,40.16,27.14,63.76s-4.91,47.9-15.81,68.77c-5.11,9.8-11.58,19-20,26.21-9.58,8.19-21.18,12.19-33.62,13.36-3.18.3-6.37.48-9.55.64C761.76,292.48,761.73,298.48,765.6,298.29Z"/><path class="cls-1" d="M813.87,227.57a69.46,69.46,0,0,1-33.22,39.31,64.79,64.79,0,0,1-13.91,5.5c-3.73,1-2.15,6.79,1.59,5.78A75.57,75.57,0,0,0,813,244.06a73.51,73.51,0,0,0,6.71-14.89,3,3,0,0,0-5.79-1.6Z"/><path class="cls-1" d="M786,230.35a33.88,33.88,0,0,1-19.75,23.28c-1.49.63-1.82,2.83-1.07,4.1a3.06,3.06,0,0,0,4.1,1.08A39.52,39.52,0,0,0,791.76,232c.89-3.76-4.9-5.36-5.79-1.6Z"/></g><g id="arrows"><path class="cls-1" d="M869.38,204.16c12.61-3.44,25.35-7,38.49-7.33,14-.36,28,1.83,41.49,5.06a77.36,77.36,0,0,0,22.22,2.24c2.88-.16,2.9-4.66,0-4.5A69.72,69.72,0,0,1,952,197.89a211.38,211.38,0,0,0-21-4,158.58,158.58,0,0,0-21.1-1.54A102.87,102.87,0,0,0,892,194c-8,1.46-15.9,3.64-23.76,5.78-2.79.77-1.61,5.11,1.19,4.34Z"/><path class="cls-1" d="M442.65,199.82c-12.89-3.52-25.92-7.09-39.35-7.48a140.51,140.51,0,0,0-20.3,1.11,183.28,183.28,0,0,0-21.92,3.91,93.85,93.85,0,0,1-9.38,1.9,67.17,67.17,0,0,1-12.44.37c-2.9-.16-2.89,4.34,0,4.5a72.72,72.72,0,0,0,20-1.72c6.7-1.52,13.3-3.13,20.13-4,12.85-1.66,25.66-2.34,38.47,0,8,1.46,15.79,3.62,23.59,5.75,2.8.77,4-3.57,1.2-4.34Z"/></g><g id="chip"><g id="Espchip"><path class="cls-1" d="M1014.75,169.45c.14-5.72.5-12.34,6.34-15.15a24.33,24.33,0,0,1,8.33-1.87c3.84-.34,7.69-.57,11.53-.79,15.85-.91,31.73-1.11,47.61-1,8.1,0,16.21.15,24.32.27,5.58.08,12.24-.52,17.33,2.28,5.88,3.23,5.07,10.61,5.11,16.36l.18,23.87.17,24.37c.06,7.74.28,15.5.13,23.23-.13,6.42-1.12,13-5.81,17.74-4.43,4.5-10.63,6.71-16.78,7.53-7.72,1-15.72.33-23.46-.23s-15.66-1.35-23.49-1.9-15.6-1.15-23.35-.6c-7.31.51-15,2.86-22.28,1.19-3-.68-5.63-2.11-7-5s-1.29-6-1.18-9.1c.28-7.94.75-15.89,1-23.84.4-15.32.73-30.64,1.09-46,.09-3.81.18-7.61.26-11.42.08-3.16-4.83-3.16-4.9,0l-1.14,48.11q-.3,12.6-.85,25.17c-.18,3.89-.57,7.87-.36,11.76a17.36,17.36,0,0,0,3.16,9.77c4.79,6.23,13.77,6.33,20.87,5.55,4-.45,8-1.18,12.11-1.42a117.06,117.06,0,0,1,12.14.06c8.32.39,16.61,1.05,24.91,1.76s16.35,1.44,24.54,1.41c7.49,0,15.16-1,21.82-4.63a24.89,24.89,0,0,0,12.43-15.52c1.93-7.41,1.23-15.44,1.18-23l-.19-25.36-.18-25.11c0-4.12,0-8.23-.09-12.35,0-3.66-.26-7.35-1.81-10.73-2.77-6.05-9.49-8-15.6-8.62-3.54-.33-7.11-.27-10.66-.32l-12.65-.17c-16.71-.19-33.42-.19-50.11.52q-6.31.27-12.63.68c-3.74.24-7.5.44-11.21,1a20.1,20.1,0,0,0-9.1,3.41,15.2,15.2,0,0,0-5.47,8.24,39.91,39.91,0,0,0-1.11,9.81C1009.77,172.61,1014.68,172.61,1014.75,169.45Z"/><path class="cls-1" d="M1002.4,120.32a27.58,27.58,0,0,1,1-7.35,9.49,9.49,0,0,1,.89-2,8.39,8.39,0,0,1,.5-.81l.24-.35c.37-.56-.1.1.06-.08a18.41,18.41,0,0,1,2.75-2.69c-.56.44.17-.1.32-.21l.88-.59c.62-.38,1.24-.74,1.89-1.08s1.27-.62,1.92-.92.1,0,0,0l.48-.19c.41-.17.82-.32,1.23-.47,1.54-.56,3.12-1,4.71-1.45s3.26-.77,4.91-1.08c.83-.15,1.65-.29,2.48-.42l1.17-.17.59-.09.4,0A184.66,184.66,0,0,1,1049.14,99c7.22-.12,14.46-.28,21.68-.23,11.58.08,23.15.69,34.71,1.45,5.86.39,11.72.82,17.58,1.24l8.66.6a35.27,35.27,0,0,1,7.6,1c3.91,1.15,6.37,4,7.91,7.74,1.68,4,1.87,8.39,2.06,12.87.49,11.64-.06,23.3-.55,34.93-1,23.31-.49,46.66-.37,70,0,5.79.08,11.58.09,17.37,0,4.88-.06,9.82-1.31,14.56a22.78,22.78,0,0,1-6.48,11,30.53,30.53,0,0,1-10.58,6.27c-10.18,3.61-21.2,2.61-31.74,1.66-11.51-1-23-1.8-34.57-2.17s-23-.64-34.47.5c-5.61.55-11.27,1.15-16.91.68-4-.32-8.54-1.31-11-4.46-3-3.72-2.06-9.57-2-14q0-8.83.14-17.67c.16-11.7.41-23.41.66-35.11.5-23.38.91-46.76,1.65-70.14q.27-8.43.59-16.85c.14-3.84-5.83-3.84-6,0-.92,24.18-1.44,48.37-1.93,72.56-.49,24-1,48-1.13,72,0,5.37.79,11,5.1,14.71,4.06,3.49,9.23,4.6,14.45,5,5.81.42,11.62-.25,17.39-.82A173.44,173.44,0,0,1,1048,283q18,.08,35.92,1.29c6,.41,11.92,1,17.88,1.47a104.26,104.26,0,0,0,17.58.33c9.75-.84,19.74-4.11,26.64-11.36a29,29,0,0,0,7.12-13.25,66.77,66.77,0,0,0,1.37-16c0-12-.13-24-.18-36.06s-.3-24,0-36,1-23.95,1.22-35.93c.08-6,0-12.06-.39-18.08a31.8,31.8,0,0,0-3.58-13.58,17.83,17.83,0,0,0-11-8.69,45.25,45.25,0,0,0-8.52-1.08l-9.16-.64c-12-.85-23.93-1.74-35.92-2.25-10.18-.44-20.33-.38-30.52-.27-6.43.06-12.87.11-19.29.54a98.23,98.23,0,0,0-21.63,3.42c-6,1.8-12.1,4.68-15.77,10-2.71,3.91-3.12,8.78-3.3,13.39a3,3,0,0,0,6,0Z"/><path class="cls-1" d="M1140.68,133a56,56,0,0,0-1.2-10.24c-.34-1.57-.75-3.13-1.21-4.67a17.74,17.74,0,0,0-1.7-4.56c-2-3.12-6.31-2-9.42-1.83l-11.19.75a2.3,2.3,0,0,0-2.17,2.85,66.73,66.73,0,0,1,1.09,16.57l2.25-2.25a170.36,170.36,0,0,1-23.48-.09l2.16,1.66c-.64-3.67-1.34-7.33-2-11-.34-1.77-.67-3.55-1-5.32s-.31-4-1.49-5.35-2.85-1.28-4.51-1.25l-5.62.09-11.73.19a2.29,2.29,0,0,0-2.25,2.25,108.71,108.71,0,0,1-1.35,21.24l2.77-1.57a115.37,115.37,0,0,0-22.89-1.4l2.17,1.65q-1-5.37-1.7-10.77c-.15-1.13-.29-2.25-.41-3.38a22.19,22.19,0,0,0-.57-4.23,5.5,5.5,0,0,0-2.78-3.45,8.27,8.27,0,0,0-5-.34c-5.46.83-11,1.37-16.43,2.11a23.28,23.28,0,0,0-3.43.52c-1.93.59-2.05,2.43-2.18,4.13a68.25,68.25,0,0,0,0,8.34c.29,6.47,1.14,12.91,1.22,19.39,0,2.9,4.53,2.9,4.5,0-.06-4.81-.57-9.6-.92-14.4-.18-2.5-.33-5-.38-7.52,0-1.24,0-2.48,0-3.72,0-.53.05-1.06.08-1.58,0-.28,0-.56.07-.85s.3-1-.05-.33l-.81.81a5.76,5.76,0,0,1,1.65-.25l1.95-.26c1.7-.22,3.4-.42,5.1-.62,3.27-.39,6.54-.76,9.8-1.26,1-.14,2.74-.77,3.26.36s.38,2.74.51,3.94c.35,3,.8,6.09,1.28,9.12q.43,2.73.91,5.43a2.28,2.28,0,0,0,2.17,1.66,110.08,110.08,0,0,1,21.69,1.24c1.1.17,2.56-.27,2.77-1.58a114.56,114.56,0,0,0,1.51-22.43l-2.25,2.25,10.26-.17,5.13-.08,2.44,0a5.24,5.24,0,0,0,1.06,0c.14,0,.06-.08-.26-.19-.31-.31-.39-.26-.22.14a8,8,0,0,0,.43,2.43c.14.78.29,1.57.43,2.35.3,1.61.61,3.22.91,4.83.64,3.36,1.27,6.71,1.87,10.07a2.25,2.25,0,0,0,2.17,1.65,170.36,170.36,0,0,0,23.48.09,2.31,2.31,0,0,0,2.25-2.25,72.1,72.1,0,0,0-1.25-17.77L1116,117l9.73-.65,4.62-.31a15.63,15.63,0,0,1,2.16-.11c.38,0,.29-.1.49.41a49,49,0,0,1,3.22,16.71c.09,2.89,4.59,2.9,4.5,0Z"/></g><g id="uart"><line class="cls-2" x1="1159.79" y1="188.32" x2="1160.29" y2="188.32"/><line class="cls-3" x1="1172.67" y1="188.32" x2="1193.63" y2="188.32"/><line class="cls-4" x1="1200.3" y1="188.32" x2="1398.44" y2="188.32"/><line class="cls-2" x1="1405.11" y1="188.32" x2="1405.61" y2="188.32"/><path class="cls-1" d="M1239.57,130.89a2,2,0,0,1,1.48-.77,1.68,1.68,0,0,1,1.4.82,49.3,49.3,0,0,1,.81,9.36v3.64a45.2,45.2,0,0,1-.14,4.88c-.1.49-.19,1.05-.29,1.65s-.18,1.08-.26,1.39-.2.76-.36,1.3a15.76,15.76,0,0,1-5.28,7.39,8.62,8.62,0,0,1-4.78,1.54,7.92,7.92,0,0,1-5-2.11,16.64,16.64,0,0,1-4.2-5.28,24.46,24.46,0,0,1-2.5-11.28c0-1.51.23-5.07.67-10.71a4,4,0,0,1,1-1.37,2.19,2.19,0,0,1,1.41-.6c.71,0,1.14.49,1.3,1.45-.45,5.53-.67,9-.67,10.51a20.4,20.4,0,0,0,2.06,9.36,15.38,15.38,0,0,0,3.19,4.49,5.53,5.53,0,0,0,3.72,1.79c2,0,3.75-1.56,5.19-4.7a12,12,0,0,0,1-5.23,6.48,6.48,0,0,1,.1-1.34l.1-6.34a44.4,44.4,0,0,0-.68-8.06A2.61,2.61,0,0,1,1239.57,130.89Z"/><path class="cls-1" d="M1257.61,130.46a2.47,2.47,0,0,1,2,1,20.5,20.5,0,0,1,2.11,4.37q3,7.83,5.91,24.53a2.62,2.62,0,0,1,0,.55,1.11,1.11,0,0,1-.45.77,1.91,1.91,0,0,1-1.3.41,2.37,2.37,0,0,1-1.41-.41,2.05,2.05,0,0,1-.77-1.35c-.13-.62-.37-1.84-.72-3.67q-1.15-6.09-1.54-6.33a14.34,14.34,0,0,0-3.81-.72c-2.16-.26-3.6-.39-4.3-.39a2.38,2.38,0,0,0-1.25.19q-.86.78-2.35,11.67c-.13.61-.74.91-1.82.91s-1.64-.46-1.64-1.39c0-2.31.85-6.7,2.55-13.2s3.1-10.8,4.22-12.91Q1255.22,130.46,1257.61,130.46Zm-.19,5.32q-.72,0-2.49,4.25a21.2,21.2,0,0,0-1.78,5.26.46.46,0,0,0,.1.34,7.51,7.51,0,0,0,3,.67c1.76.19,2.93.29,3.5.29s.9,0,1-.13a1.52,1.52,0,0,0,.1-.76,39.45,39.45,0,0,0-1.3-5.28Q1258.24,135.79,1257.42,135.78Z"/><path class="cls-1" d="M1273.55,161.59a2.43,2.43,0,0,1-1.66.69c-.59,0-1-.38-1.22-1.15q-.15-6.33-.14-12.63l-.15-12.09a4.94,4.94,0,0,1,3.22-5,14.49,14.49,0,0,1,6.14-1.2,9.87,9.87,0,0,1,3.91.89,11.33,11.33,0,0,1,3.75,2.59,5.23,5.23,0,0,1,1.65,3.69,7,7,0,0,1-1.82,4.28,19.36,19.36,0,0,1-4.51,4,23.18,23.18,0,0,1-5.23,2.61,48.6,48.6,0,0,1,7.77,6.7q3.32,3.57,3.31,5.54a1.56,1.56,0,0,1-.62,1.18,2.2,2.2,0,0,1-1.51.55,1.89,1.89,0,0,1-1.51-.77,16.56,16.56,0,0,0-4-5.35,47,47,0,0,0-6.89-5.35l.29,9.21A2.1,2.1,0,0,1,1273.55,161.59Zm7.8-18.65q4-2.55,4-4.59a3.43,3.43,0,0,0-2-3.14,9.72,9.72,0,0,0-4.77-1.1,11.76,11.76,0,0,0-4.4.67q0,2.44,0,10.85A15.26,15.26,0,0,0,1281.35,142.94Z"/><path class="cls-1" d="M1292.51,130.94l19.44-.29c.93.29,1.39.75,1.39,1.39,0,1.6-.65,2.4-2,2.4-2.4,0-4.94.07-7.63.19q-.24,4.14-.24,6.22v2.66l.19,16.85c0,1-.25,1.57-.76,1.73a4.61,4.61,0,0,1-1.44.19c-.93,0-1.44-.53-1.54-1.58q-.29-3.7-.29-13.8t.29-12.17c-.67,0-1.66.05-3,.05s-2.94,0-4.89-.05a1.54,1.54,0,0,1-1.2-.48,1.68,1.68,0,0,1-.43-1.18,2,2,0,0,1,.6-1.36A2.2,2.2,0,0,1,1292.51,130.94Z"/></g><g id="swd"><line class="cls-2" x1="1159.79" y1="231.92" x2="1160.29" y2="231.92"/><line class="cls-3" x1="1172.67" y1="231.92" x2="1193.63" y2="231.92"/><line class="cls-4" x1="1200.3" y1="231.92" x2="1398.44" y2="231.92"/><line class="cls-2" x1="1405.11" y1="231.92" x2="1405.61" y2="231.92"/><path class="cls-1" d="M1238.36,255.28a12.2,12.2,0,0,1,5.31,1c1.45.71,2.18,1.6,2.18,2.69a2.16,2.16,0,0,1-.36,1.25,1.2,1.2,0,0,1-1.06.53,10,10,0,0,1-3-1.08,10,10,0,0,0-4.2-1.08,7.66,7.66,0,0,0-3.91,1.2,3.45,3.45,0,0,0-2,2.92,3.63,3.63,0,0,0,2.45,3.46,24.33,24.33,0,0,0,5.23,1.46,11.09,11.09,0,0,1,5.57,2.65q2.16,2,2.16,6,0,6.15-3.69,9.07a9.2,9.2,0,0,1-5.84,1.63,15.39,15.39,0,0,1-7.51-2.06c-1.63-.86-2.45-1.73-2.45-2.59a1.9,1.9,0,0,1,.41-1.06,3.26,3.26,0,0,1,1.13-1,1.5,1.5,0,0,1,1.32-.12c.4.18,1.05.49,1.94.94s1.56.75,2,.91a10.77,10.77,0,0,0,3.8.77,4.81,4.81,0,0,0,3.43-1.75,6,6,0,0,0,1.65-4.3,4.75,4.75,0,0,0-3.36-4.7,16.38,16.38,0,0,0-3.69-1,13.78,13.78,0,0,1-6.43-2.57,6.67,6.67,0,0,1-2.17-5.45,6.53,6.53,0,0,1,3.13-5.73A14.07,14.07,0,0,1,1238.36,255.28Z"/><path class="cls-1" d="M1275.22,255c.68,0,1.14.48,1.4,1.44-.19,3.23-.4,5.52-.63,6.89s-.4,2.55-.55,3.57-.24,1.73-.29,2.11-.18,1.17-.4,2.36-.46,2.36-.7,3.52-.38,1.87-.43,2.09-.35,1.66-.89,4.3a33.45,33.45,0,0,1-1.22,4.85,1.43,1.43,0,0,1-1.4.88,2.14,2.14,0,0,1-1.56-.57,40.64,40.64,0,0,1-4.17-7.49c-.32-.77-.68-1.6-1.08-2.5s-.7-1.56-.89-2l-.43-1a58.4,58.4,0,0,0-2.79,5.86q-1.77,4.13-3.12,6.62a2.41,2.41,0,0,1-1.92,1.1q-2.2,0-3.36-11.76s0-.2-.07-.53-.11-.88-.19-1.67-.18-1.69-.29-2.67-.52-5-1.22-12.12a2.55,2.55,0,0,1,.72-1.75,2.11,2.11,0,0,1,1.58-.79c.7,0,1.19.46,1.44,1.39q1.31,15.6,2.59,23c.26-.45.91-1.93,2-4.44a55.88,55.88,0,0,1,2.88-6c.87-1.49,1.7-2.23,2.5-2.23a1.64,1.64,0,0,1,1.39.86,69.64,69.64,0,0,0,5.18,12.1c0-.35.23-1.31.58-2.88l.62-3.07a3.91,3.91,0,0,1,.12-.82c.08-.35.15-.7.2-1s.1-.65.16-.94l.53-3q1.15-7.11,1.44-11.67a2.68,2.68,0,0,1,.89-1.41A2.16,2.16,0,0,1,1275.22,255Z"/><path class="cls-1" d="M1280,285.52a1.48,1.48,0,0,1-.72-1.18,1.35,1.35,0,0,1,.53-1.08,120.29,120.29,0,0,1-.91-15.74q0-2.68.24-10.47a2.58,2.58,0,0,1,1-1.25,2.49,2.49,0,0,1,1.42-.52,3.32,3.32,0,0,1,.82.05,25.41,25.41,0,0,1,11.95,7.41,19.71,19.71,0,0,1,5.33,13.18q0,8.44-7,10.61a14.51,14.51,0,0,1-4.25.62,19.62,19.62,0,0,1-3.91-.34,2.31,2.31,0,0,1,.19,1,1.62,1.62,0,0,1-.79,1.25,3,3,0,0,1-1.87.6c-.72,0-1.18-.43-1.37-1.29Zm2.88-18.39a126.21,126.21,0,0,0,1,15.94,15.79,15.79,0,0,0,3.89.34,15.28,15.28,0,0,0,5.26-.92c1.68-.6,2.57-1.5,2.66-2.69a19.88,19.88,0,0,0,.15-2.06,18.9,18.9,0,0,0-3.34-11,20.68,20.68,0,0,0-9.34-7.29C1283,263.18,1282.9,265.76,1282.9,267.13Z"/></g><path class="cls-1" d="M534.54,202.51a1.63,1.63,0,0,1-.78-1.23,1.87,1.87,0,0,1,.42-1.17q-.6-4.62-.84-10.68t-.24-6.87q0-.81,0-1.74a12,12,0,0,1,.27-2.07,2.52,2.52,0,0,1,2.76-2.28q6.18,0,11.91,5.58t5.73,12.12q0,4.92-3.06,7.41t-8.34,2.49a24.13,24.13,0,0,1-2.88-.24,2.22,2.22,0,0,1-.78,1.68,2.57,2.57,0,0,1-1.8.72,1.72,1.72,0,0,1-1.86-1.56Zm3.06-21.6q-.06.66-.06,2.28t.33,7.17q.33,5.55.87,9.45a28.65,28.65,0,0,0,3.72.12q7,0,7-4a13.9,13.9,0,0,0-3.21-9A20.21,20.21,0,0,0,537.6,180.91Z"/><path class="cls-1" d="M563.64,202.45q-.24,1.5-2.13,1.5t-1.89-1.56q0-3.54,3.48-14.4a40.91,40.91,0,0,1,3.48-8.28q1.92-3.3,3.72-3.3a2,2,0,0,1,1.68,1.14q.72,1.14,2.61,5.19a55.28,55.28,0,0,1,3.15,8.58q1.26,4.53,2.76,11.07a1.52,1.52,0,0,1-.54,1.23,2,2,0,0,1-1.32.45,2.22,2.22,0,0,1-2.4-1.68l-2.1-8.22a34.29,34.29,0,0,1-8.46-.84A65.51,65.51,0,0,0,563.64,202.45Zm6.48-20.52a34.49,34.49,0,0,0-3.24,7.5,23.89,23.89,0,0,0,6.24.72A55,55,0,0,0,570.12,181.93Z"/><path class="cls-1" d="M585.84,183.13a5.81,5.81,0,0,1,2.88-4.83,12,12,0,0,1,7-2,14.59,14.59,0,0,1,6.33,1.08q2.16,1.08,2.16,2.76a1.75,1.75,0,0,1-.51,1.29,1.68,1.68,0,0,1-1.23.51,9.17,9.17,0,0,1-2.85-1,9.49,9.49,0,0,0-3.84-1,8.16,8.16,0,0,0-3.6.93q-1.89.93-1.89,2.31t2.28,2.46a29.23,29.23,0,0,0,5.4,1.86,13.8,13.8,0,0,1,4.17,1.53,12.76,12.76,0,0,1,1.5,1.2,5.12,5.12,0,0,1,.93,1.74,9.7,9.7,0,0,1,.48,3.33q0,4.38-2.85,6.51a11,11,0,0,1-6.78,2.13,16.46,16.46,0,0,1-6.75-1.26q-2.82-1.26-2.82-3.12a2.28,2.28,0,0,1,.81-1.71,1.53,1.53,0,0,1,1.71-.39q5.64,2.22,7.08,2.22a5.59,5.59,0,0,0,4-1.29,4.28,4.28,0,0,0,1.38-3.27,3.43,3.43,0,0,0-1.56-3,10.78,10.78,0,0,0-3.75-1.53q-2.19-.48-4.38-1.08a8.59,8.59,0,0,1-3.75-2.1A5.72,5.72,0,0,1,585.84,183.13Z"/><path class="cls-1" d="M627.54,191.83l-.06,8.88q0,3.36-2.16,3.36a2.37,2.37,0,0,1-1.53-.42,1.48,1.48,0,0,1-.45-1.32q.24-3.18.24-10.14a29.72,29.72,0,0,1-3.15.12q-2.13,0-6.63-.48v1.26q0,1.26.48,9.12a1.41,1.41,0,0,1-.69,1.41,2.94,2.94,0,0,1-1.53.45,1.66,1.66,0,0,1-1.23-.45,1.69,1.69,0,0,1-.51-1.05q-.66-6.24-.66-9.45t.06-4.35l.24-10a1.65,1.65,0,0,1,.81-1.23,2.78,2.78,0,0,1,1.59-.51q1.56,0,1.56,1.32l-.12,9.42a33.64,33.64,0,0,0,5.22.48h4.56q-.18-3.3-.18-10a1.61,1.61,0,0,1,.81-1.38,3.08,3.08,0,0,1,1.74-.54,1.29,1.29,0,0,1,1.29.84,3.42,3.42,0,0,1,.3,1.62Z"/><path class="cls-1" d="M636.69,196.87a3.08,3.08,0,0,1,2.25,1,4.24,4.24,0,0,1,1.14,2.64,3.64,3.64,0,0,1-1,2.43,2.9,2.9,0,0,1-2.25,1.11,4,4,0,0,1-2.31-.69,2.39,2.39,0,0,1-1-2.13,5.27,5.27,0,0,1,.93-2.88A2.65,2.65,0,0,1,636.69,196.87Z"/><path class="cls-1" d="M668.16,178.27a5,5,0,0,1-.6,1.86l-1.08,2.28a62.57,62.57,0,0,0-2.79,7.92q-1.59,5.34-3.93,11.64-.78,2.1-2.4,2.1-1.2,0-2.58-3.42a174.88,174.88,0,0,0-8-17l-.66-1.23q-.24-.45-.48-.84a5.1,5.1,0,0,1-.33-.6l-.15-.36a1.59,1.59,0,0,1-.09-.33,1.89,1.89,0,0,1,0-.3v-.36a2,2,0,0,1,.81-1.44,2.46,2.46,0,0,1,1.62-.72,2.13,2.13,0,0,1,1.35.42,4.67,4.67,0,0,1,1.08,1.35q.54.93,1,1.83,1.56,3.42,2.46,5.28t1.65,3.54q.75,1.68,1.44,3.48t.93,2.34q.42-1.5,2.61-7.62t3.09-8.22q1.5-3.48,3-3.48a1.61,1.61,0,0,1,.6.12Q668.16,177,668.16,178.27Z"/><path class="cls-1" d="M692.1,181.51l-4.86-.6q-9.72,0-9.72,9.72a10.42,10.42,0,0,0,2.94,7.8,4.18,4.18,0,0,0,3,1.5,19.74,19.74,0,0,0,5.46-1.38,42.31,42.31,0,0,1,4.2-1.38q1.62,0,1.62,1.5a2.58,2.58,0,0,1-1.38,2.16Q685.86,204,682.5,204a7.18,7.18,0,0,1-4-1.32,9.49,9.49,0,0,1-3.12-3.42,17.76,17.76,0,0,1-2.34-8.88q0-6.36,3.84-10.08a13.56,13.56,0,0,1,9.84-3.72,21.7,21.7,0,0,1,6.9,1.14v.06a1.84,1.84,0,0,1,1.08,1.5,2,2,0,0,1-.87,1.53A2.77,2.77,0,0,1,692.1,181.51Z"/><path class="cls-1" d="M711.9,176.65a8.73,8.73,0,0,1,7.17,3.42q2.73,3.42,2.73,9.36a17.53,17.53,0,0,1-3,10.26q-3,4.32-7.62,4.32a9.78,9.78,0,0,1-8.22-4.32,17.32,17.32,0,0,1-3.18-10.56q0-6.24,3.3-9.36A12.31,12.31,0,0,1,711.9,176.65Zm5.58,13.44q0-4.8-1.38-7.05t-4.86-2.25a6.9,6.9,0,0,0-5.4,2.13,8.74,8.74,0,0,0-1.92,6.06,13.79,13.79,0,0,0,2,7.29,6.3,6.3,0,0,0,5.64,3.36,4.37,4.37,0,0,0,3.48-1.74A12.11,12.11,0,0,0,717.48,190.09Z"/><path class="cls-1" d="M731.58,185.35l-.66,14.58q-.06,1.92-.12,2.58a1.83,1.83,0,0,1-2.1,1.62,1.88,1.88,0,0,1-1.29-.51,1.86,1.86,0,0,1-.63-1.29q.48-15.6.48-16.83v-2.73a11.15,11.15,0,0,1,.3-2.7,2,2,0,0,1,2.16-1.62,3.54,3.54,0,0,1,2.1,1.14,37.16,37.16,0,0,1,3.66,4.2,66.31,66.31,0,0,1,8.64,13.26q-.12-8.52-.42-13t-.3-4.89v-.48a2.37,2.37,0,0,1,2.46-2.28,2,2,0,0,1,1.44.69,2.38,2.38,0,0,1,.66,1.71l.3,22.32q0,3.12-2.52,3.12a2.83,2.83,0,0,1-2.34-1.05,16.44,16.44,0,0,1-1.2-1.65q-.36-.6-1.08-1.92A74.26,74.26,0,0,0,731.58,185.35Z"/><path class="cls-1" d="M757.53,196.87a3.08,3.08,0,0,1,2.25,1,4.24,4.24,0,0,1,1.14,2.64,3.64,3.64,0,0,1-1,2.43,2.9,2.9,0,0,1-2.25,1.11,4,4,0,0,1-2.31-.69,2.39,2.39,0,0,1-1-2.13,5.27,5.27,0,0,1,.93-2.88A2.65,2.65,0,0,1,757.53,196.87Z"/><path class="cls-1" d="M767.58,204.07q-1.68,0-1.68-1.44l.24-24.42a1.68,1.68,0,0,1,.6-1.35,2.19,2.19,0,0,1,1.47-.51,2.66,2.66,0,0,1,1.5.42,1.73,1.73,0,0,1,.69,1.41c0,.66.06,2.13.06,4.41q0,16-.24,19.5a1.9,1.9,0,0,1-.93,1.38A3,3,0,0,1,767.58,204.07Z"/><path class="cls-1" d="M787.14,176.65a8.71,8.71,0,0,1,7.16,3.42q2.75,3.42,2.74,9.36a17.53,17.53,0,0,1-3,10.26c-2,2.88-4.54,4.32-7.62,4.32a9.75,9.75,0,0,1-8.22-4.32A17.26,17.26,0,0,1,775,189.13q0-6.24,3.31-9.36A12.28,12.28,0,0,1,787.14,176.65Zm5.58,13.44q0-4.8-1.38-7.05t-4.87-2.25a6.86,6.86,0,0,0-5.39,2.13,8.7,8.7,0,0,0-1.92,6.06,13.79,13.79,0,0,0,2,7.29,6.28,6.28,0,0,0,5.64,3.36,4.39,4.39,0,0,0,3.48-1.74A12.16,12.16,0,0,0,792.72,190.09Z"/><g id="your_device" data-name="your device"><path class="cls-1" d="M1491.63,84.19l0-2.45a4.39,4.39,0,0,0-.79-2.45q-.8-1.2-3.82-7t-3-6.5a1.85,1.85,0,0,1,.62-1.35,1.83,1.83,0,0,1,1.23-.6q.6,0,1.44,1.11a55.38,55.38,0,0,1,3.31,5.81q2.47,4.7,2.85,5.18a86,86,0,0,1,7.4-11.52,1.79,1.79,0,0,1,1.08-.62,1.51,1.51,0,0,1,.6.09c.76.32,1.15.75,1.15,1.27a2.37,2.37,0,0,1-.39,1.37c-.25.39-1,1.39-2.11,3a56.37,56.37,0,0,0-4.39,7.17Q1495,80.4,1495,81.21V90l.15,3.84a1.68,1.68,0,0,1-.58,1.46,2.41,2.41,0,0,1-1.42.41,1.12,1.12,0,0,1-1.12-.91,8.77,8.77,0,0,1-.34-2.4c0-1,0-2.45,0-4.37Z"/><path class="cls-1" d="M1519,63.88A8.12,8.12,0,0,1,1524.7,66q4.6,4.14,4.61,13t-5.09,14a9.54,9.54,0,0,1-6.09,2.78,8.67,8.67,0,0,1-7.11-3.12,19.17,19.17,0,0,1-3.62-7,27.75,27.75,0,0,1-1.08-7.47,16.65,16.65,0,0,1,2.93-10.12Q1512.31,63.89,1519,63.88Zm5.66,20.93a28,28,0,0,0,.63-5.9,18,18,0,0,0-1.51-8.16,5.32,5.32,0,0,0-5.12-2.88c-4.28,0-7,2-8,6.09a15.15,15.15,0,0,0-.48,4.18,21.82,21.82,0,0,0,1,5.9q1.29,4.51,3.84,6.34a5.68,5.68,0,0,0,3.6,1.15"/><path class="cls-1" d="M1551.78,64.6a1.93,1.93,0,0,1,1.48-.76,1.69,1.69,0,0,1,1.4.81,49.45,49.45,0,0,1,.81,9.36v3.65a45,45,0,0,1-.14,4.87c-.1.5-.19,1-.29,1.66s-.19,1.07-.26,1.39-.2.75-.36,1.3a11.23,11.23,0,0,1-1.49,3.16,11.37,11.37,0,0,1-3.79,4.23,8.71,8.71,0,0,1-4.78,1.53,7.92,7.92,0,0,1-5-2.11,16.64,16.64,0,0,1-4.2-5.28,24.4,24.4,0,0,1-2.5-11.28q0-2.25.67-10.7a3.87,3.87,0,0,1,1-1.37,2.14,2.14,0,0,1,1.41-.6c.71,0,1.14.48,1.3,1.44q-.67,8.31-.67,10.51a20.4,20.4,0,0,0,2.06,9.36,15.25,15.25,0,0,0,3.19,4.49,5.52,5.52,0,0,0,3.72,1.8q3,0,5.19-4.7a12,12,0,0,0,1-5.24,5.89,5.89,0,0,1,.1-1.34l.1-6.34a44.4,44.4,0,0,0-.68-8.06A2.64,2.64,0,0,1,1551.78,64.6Z"/><path class="cls-1" d="M1562.34,95.3a2.48,2.48,0,0,1-1.66.7c-.59,0-1-.39-1.22-1.16q-.15-6.33-.15-12.62l-.14-12.1a5,5,0,0,1,3.21-5,14.54,14.54,0,0,1,6.15-1.2,10.08,10.08,0,0,1,3.91.89,11.44,11.44,0,0,1,3.74,2.59,5.22,5.22,0,0,1,1.66,3.7,7,7,0,0,1-1.83,4.27,18.94,18.94,0,0,1-4.51,4,23.46,23.46,0,0,1-5.23,2.62,48.21,48.21,0,0,1,7.78,6.69q3.32,3.59,3.31,5.55a1.56,1.56,0,0,1-.63,1.17,2.19,2.19,0,0,1-1.51.56,1.9,1.9,0,0,1-1.51-.77,16.31,16.31,0,0,0-4-5.35,46.45,46.45,0,0,0-6.89-5.36l.29,9.22A2.06,2.06,0,0,1,1562.34,95.3Zm7.8-18.65q4-2.54,4-4.58a3.45,3.45,0,0,0-2-3.15,9.9,9.9,0,0,0-4.78-1.1,11.74,11.74,0,0,0-4.39.67q0,2.45,0,10.85A15.22,15.22,0,0,0,1570.14,76.65Z"/><path class="cls-1" d="M1593.05,94.27a1.47,1.47,0,0,1-.71-1.18,1.34,1.34,0,0,1,.52-1.08,122.06,122.06,0,0,1-.91-15.74q0-2.68.24-10.47a2.48,2.48,0,0,1,1-1.24,2.39,2.39,0,0,1,1.41-.53,3.32,3.32,0,0,1,.82,0,25.41,25.41,0,0,1,11.95,7.41,19.71,19.71,0,0,1,5.33,13.18q0,8.44-7,10.61a14.46,14.46,0,0,1-4.25.62,19.62,19.62,0,0,1-3.91-.34,2.33,2.33,0,0,1,.19,1,1.62,1.62,0,0,1-.79,1.24,3,3,0,0,1-1.87.6c-.72,0-1.18-.43-1.37-1.29Zm2.88-18.39a126.21,126.21,0,0,0,1,15.94,15.79,15.79,0,0,0,3.89.34,15.28,15.28,0,0,0,5.26-.92c1.68-.6,2.57-1.5,2.66-2.68a20.22,20.22,0,0,0,.15-2.07,18.9,18.9,0,0,0-3.34-11,20.65,20.65,0,0,0-9.33-7.29C1596,71.93,1595.93,74.51,1595.93,75.88Z"/><path class="cls-1" d="M1615.66,79.29A1.39,1.39,0,0,1,1615,78a2.34,2.34,0,0,1,.53-1.48q-.19-4.8-.19-10.13a2.67,2.67,0,0,1,2.64-2.35q6.33.28,13.72.28,1.83.39,1.83,1.59c0,1.34-1.31,2.13-3.94,2.35-.7,0-1.47,0-2.3,0h-3.12q-.92,0-5-.39c0,4,.06,6.76.19,8.26q2.55,0,9.79,0c1.15.22,1.73.74,1.73,1.56a2.07,2.07,0,0,1-1.39,1.89,1.83,1.83,0,0,1-.53.2l-8.3-.15a6,6,0,0,0-1.25.1l.19,8.25c0,1.86,0,3.19-.14,4l11.13-.15c1,.16,1.54.6,1.54,1.3a2.18,2.18,0,0,1-.65,1.44,2.85,2.85,0,0,1-1.51.91l-12.29.19a2.26,2.26,0,0,1-1.54-.4,1.87,1.87,0,0,1-.43-1.37,34,34,0,0,0,.19-4.32V86.35Z"/><path class="cls-1" d="M1648.4,94.89c-1.31-3.87-2.68-7.41-4.08-10.63s-3.22-7.26-5.43-12.12c-.76-1.7-1.24-2.74-1.44-3.14a3.11,3.11,0,0,1-.28-1.35,2,2,0,0,1,.74-1.46,2.34,2.34,0,0,1,1.66-.72,1.82,1.82,0,0,1,1.53.91l2.31,5.28q4.85,11.19,6.91,16.27l.86-3.36c.71-2.94,1.44-5.85,2.21-8.73Q1656.66,64,1659.82,64a1.54,1.54,0,0,1,1,.33,1.13,1.13,0,0,1,.4.92,4,4,0,0,1-.6,1.68,25.63,25.63,0,0,0-1.51,4c-.61,1.92-1,3-1.13,3.38s-.91,3-2.3,8.09-2.58,9-3.58,11.91a2.55,2.55,0,0,1-2.42,1.77C1649.11,96.09,1648.69,95.69,1648.4,94.89Z"/><path class="cls-1" d="M1666,65.28a3,3,0,0,1,1.7-.48c.64,0,1,.36,1.2,1.1q.06,5.56.2,16.66,0,6.76-.39,11.47a1.86,1.86,0,0,1-.89,1.27,2.74,2.74,0,0,1-1.6.55,1.21,1.21,0,0,1-1.35-1.39q.48-4.8.48-11.9l-.29-16.13A2.05,2.05,0,0,1,1666,65.28Z"/><path class="cls-1" d="M1688.62,64.41a23.48,23.48,0,0,1,7.1,1.25,1.89,1.89,0,0,1,.87,1.46,1.76,1.76,0,0,1-.79,1.4,2.91,2.91,0,0,1-1.8.6,19.36,19.36,0,0,0-4.85-.68q-5.19,0-7.87,3.08c-1.8,2-2.69,5.08-2.69,9.12s1.05,7.18,3.17,9.45a5.07,5.07,0,0,0,3.88,1.78q2.27,0,7.2-2.4a7.14,7.14,0,0,1,2.31-.82c.83,0,1.25.43,1.25,1.3a2.59,2.59,0,0,1-1.2,2.16,44.43,44.43,0,0,1-6.44,2.9,13.13,13.13,0,0,1-4,.75,7.88,7.88,0,0,1-5.9-2.55q-4.38-4.69-4.37-12.84t4.15-12.05A14.05,14.05,0,0,1,1688.62,64.41Z"/><path class="cls-1" d="M1701.44,79.29a1.4,1.4,0,0,1-.68-1.25,2.34,2.34,0,0,1,.53-1.48q-.19-4.8-.19-10.13a2.69,2.69,0,0,1,2.64-2.35q6.33.28,13.73.28c1.21.26,1.82.79,1.82,1.59,0,1.34-1.31,2.13-3.93,2.35-.71,0-1.48,0-2.31,0h-3.12q-.92,0-5-.39c0,4,.07,6.76.19,8.26,1.7,0,5,0,9.8,0,1.15.22,1.72.74,1.72,1.56a2.07,2.07,0,0,1-1.39,1.89,1.72,1.72,0,0,1-.53.2l-8.3-.15a6.11,6.11,0,0,0-1.25.1l.19,8.25a37.26,37.26,0,0,1-.14,4l11.14-.15c1,.16,1.53.6,1.53,1.3a2.14,2.14,0,0,1-.65,1.44,2.82,2.82,0,0,1-1.51.91l-12.29.19a2.25,2.25,0,0,1-1.53-.4,1.83,1.83,0,0,1-.43-1.37,36,36,0,0,0,.19-4.32V86.35Z"/><path class="cls-1" d="M1752.77,131.67a46.8,46.8,0,0,1-.09,7.58c-.15,2.6-.17,5.21-.21,7.81,0,1.32,0,2.65,0,4a13.12,13.12,0,0,1,0,1.66c0-.15-.09.77-.09.37,0,.45-.22.17,0,.1.35-.16-.08.06-.1.06a4.39,4.39,0,0,1-.76.21,28.32,28.32,0,0,1-3.45.28c-6,.27-12,0-18,0l-8.31,0h-2.44c-.26,0-.79,0-.9,0,.1,0-.69-.07-.42-.09-.23,0-.26-.22-.1.17a5.35,5.35,0,0,1-.09-1.6c-.11-5.12-.09-10.25-.12-15.38,0-1.68-.15-3.51,1.63-4.31a4.77,4.77,0,0,1,.57-.2c.12,0,.87-.23.32-.11s.39,0,.52,0c.9-.05,1.8-.07,2.7-.08,4.79-.09,9.64-.2,14.43.07,2.83.16,5.66.25,8.5.29,1.45,0,2.89,0,4.34.08.73,0,1.45.07,2.17.08.13,0,.43,0,.46,0-.2.3-.57-1.22-.37-.23a2.46,2.46,0,0,0,4.74-1.3,4.19,4.19,0,0,0-2.19-2.86c-1.28-.67-2.92-.53-4.32-.58-3-.09-6-.08-8.94-.16-4.81-.14-9.6-.34-14.42-.33-4.29,0-10.09-.8-13.23,2.89-1.83,2.15-1.84,4.84-1.81,7.51q0,4.44.08,8.88c0,1.37,0,2.73,0,4.1a17.2,17.2,0,0,0,.29,4.59c.67,2.32,3,3.29,5.2,3.51a73.64,73.64,0,0,0,7.43.06c6.36,0,12.71.08,19.07.06,1.73,0,3.46-.05,5.18-.2a13.51,13.51,0,0,0,3.9-.66c2.61-1,3.5-3.4,3.5-6.05,0-3.4.05-6.79.15-10.18s.53-6.62.18-9.93a2.52,2.52,0,0,0-2.45-2.46A2.47,2.47,0,0,0,1752.77,131.67Z"/><path class="cls-1" d="M1752.77,177.17a46.8,46.8,0,0,1-.09,7.58c-.15,2.6-.17,5.21-.21,7.81,0,1.32,0,2.65,0,4a13.12,13.12,0,0,1,0,1.66c0-.15-.09.77-.09.37,0,.45-.22.17,0,.1.35-.16-.08.06-.1.06a4.39,4.39,0,0,1-.76.21,28.32,28.32,0,0,1-3.45.28c-6,.27-12,0-18,0l-8.31,0h-2.44c-.26,0-.79,0-.9,0,.1,0-.69-.07-.42-.09-.23,0-.26-.22-.1.17a5.35,5.35,0,0,1-.09-1.6c-.11-5.12-.09-10.25-.12-15.38,0-1.68-.15-3.51,1.63-4.31a4.77,4.77,0,0,1,.57-.2c.12,0,.87-.23.32-.11s.39,0,.52,0c.9-.05,1.8-.07,2.7-.08,4.79-.09,9.64-.2,14.43.07,2.83.16,5.66.25,8.5.29,1.45,0,2.89,0,4.34.08.73,0,1.45.07,2.17.08.13,0,.43,0,.46,0-.2.3-.57-1.22-.37-.23a2.46,2.46,0,0,0,4.74-1.3,4.19,4.19,0,0,0-2.19-2.86c-1.28-.67-2.92-.53-4.32-.58-3-.09-6-.08-8.94-.16-4.81-.14-9.6-.34-14.42-.33-4.29,0-10.09-.8-13.23,2.89-1.83,2.15-1.84,4.84-1.81,7.51q0,4.44.08,8.88c0,1.37,0,2.73,0,4.1a17.2,17.2,0,0,0,.29,4.59c.67,2.32,3,3.29,5.2,3.51a73.64,73.64,0,0,0,7.43.06c6.36,0,12.71.08,19.07.06,1.73,0,3.46-.05,5.18-.2a13.51,13.51,0,0,0,3.9-.66c2.61-1,3.5-3.4,3.5-6.05,0-3.4.05-6.79.15-10.18s.53-6.62.18-9.93a2.52,2.52,0,0,0-2.45-2.46A2.47,2.47,0,0,0,1752.77,177.17Z"/><path class="cls-1" d="M1752.77,222.67a46.8,46.8,0,0,1-.09,7.58c-.15,2.6-.17,5.21-.21,7.81,0,1.32,0,2.65,0,4a13.12,13.12,0,0,1,0,1.66c0-.15-.09.77-.09.37,0,.45-.22.17,0,.1.35-.16-.08.06-.1.06a4.39,4.39,0,0,1-.76.21,28.32,28.32,0,0,1-3.45.28c-6,.27-12,0-18,0l-8.31,0h-2.44c-.26,0-.79,0-.9,0,.1,0-.69-.07-.42-.09-.23,0-.26-.22-.1.17a5.35,5.35,0,0,1-.09-1.6c-.11-5.12-.09-10.25-.12-15.38,0-1.68-.15-3.51,1.63-4.31a4.77,4.77,0,0,1,.57-.2c.12,0,.87-.23.32-.11s.39,0,.52,0c.9-.05,1.8-.07,2.7-.08,4.79-.09,9.64-.2,14.43.07,2.83.16,5.66.25,8.5.29,1.45,0,2.89,0,4.34.08.73,0,1.45.07,2.17.08.13,0,.43,0,.46,0-.2.3-.57-1.22-.37-.23a2.46,2.46,0,0,0,4.74-1.3,4.19,4.19,0,0,0-2.19-2.86c-1.28-.67-2.92-.53-4.32-.58-3-.09-6-.08-8.94-.16-4.81-.14-9.6-.34-14.42-.33-4.29,0-10.09-.8-13.23,2.89-1.83,2.15-1.84,4.84-1.81,7.51q0,4.44.08,8.88c0,1.37,0,2.73,0,4.1a17.2,17.2,0,0,0,.29,4.59c.67,2.32,3,3.29,5.2,3.51a73.64,73.64,0,0,0,7.43.06c6.36,0,12.71.08,19.07.06,1.73,0,3.46-.05,5.18-.2a13.51,13.51,0,0,0,3.9-.66c2.61-1,3.5-3.4,3.5-6.05,0-3.4.05-6.79.15-10.18s.53-6.62.18-9.93a2.52,2.52,0,0,0-2.45-2.46A2.47,2.47,0,0,0,1752.77,222.67Z"/><path class="cls-1" d="M1787,276.89c-.34,6.07-.72,12.44-3.15,18.1a21.62,21.62,0,0,1-4.1,6.28c-.34.37-.7.71-1.07,1-.11.09-.67.54-.4.33s-.51.36-.65.45c-5,3.36-11.15,4.81-17.35,6.1-17.69,3.69-36,4.4-54,4.9-14.51.4-29,.45-43.56.4l-36.8-.13-53.87-.21q-29.23-.12-58.46-.28-25.2-.14-50.4-.35-9.27-.09-18.55-.21c-7.25-.1-14.59,0-21.76-1.24-5.08-.87-10.16-2.31-14.45-5.24-4.83-3.29-7.35-8.44-8.13-14.13-1-7.39-.49-15.13-.53-22.57l-.14-23.51-.58-95.27q-.15-23.83-.29-47.67c-.07-13.44-.06-27.85,6.62-40,5.73-10.39,15.83-17.74,26.76-22a79.78,79.78,0,0,1,14.57-4c.94-.17-.63.06.3,0l1.12-.12c.89-.09,1.77-.16,2.66-.23,12.31-.9,24.7-.9,37-1,17.38-.13,34.75,0,52.12.14q24.38.26,48.75.83c10.75.28,21.45.66,32.17,1.54a933.08,933.08,0,0,0,94.43,3.48c15.25-.29,30.3-3.39,45.59-2.94,10.54.31,26,2,30.38,13.49,1.87,4.93,1.66,10.4,1.43,15.57-.3,6.56-.37,13.1-.45,19.67-.19,15.95-.66,31.88-1.06,47.82s-.38,31.61-.79,47.4-.83,31.58-1.37,47.37q-.78,23.08-2,46.15c-.2,3.84,5.77,3.83,6,0,1.71-32.35,2.61-64.72,3.43-97.1.41-16.19.4-32.4.82-48.6s.88-32.41,1-48.62c0-6,.43-12,.51-17.95.07-5.5-.45-11.15-3-16.12-6-11.73-21.19-14.43-33.06-15-15.53-.72-30.81,2.32-46.29,2.83-15.9.53-31.93,0-47.82-.6q-24.12-.87-48.17-2.87c-4.94-.41-9.86-.78-14.82-1-13.83-.55-27.68-.81-41.52-1q-26.86-.45-53.73-.52c-15.6,0-31.22,0-46.82.45-4.87.15-9.76.3-14.61.74a71.08,71.08,0,0,0-23.58,6.66c-11.11,5.22-21,13.68-26.38,24.9-6.16,12.95-6.28,27.56-6.2,41.62q.29,48.63.59,97.25l.29,48.63.15,23.92c0,7.41-.49,15.17,1.22,22.44,5.09,21.68,30.81,22.05,48.7,22.31,14.09.2,28.17.3,42.25.4q28.62.19,57.23.32l58.81.25,47,.16q17.34.08,34.68,0c18.64-.1,37.33-.45,55.9-2.25a185,185,0,0,0,25.85-4c6-1.46,12.52-3.4,17.35-7.48,8.53-7.19,9.66-19.43,10.24-29.78C1793.17,273.05,1787.21,273.06,1787,276.89Z"/><path class="cls-1" d="M1546.19,164.19a32.88,32.88,0,0,1,0,4.76c0,2,0,3.91-.07,5.86-.08,3.72-.11,7.44-.15,11.15-.08,7.51-.16,15-.28,22.52-.23,14.76-.61,29.53-1.49,44.26-.15,2.54-.31,5.35-1.83,7.46s-4.11,2.65-6.49,3.12c-6.89,1.36-14.12,1.67-21.12,2-14.66.69-29.34.24-44-.07-3.74-.08-7.49-.15-11.23-.19-3.2,0-6.41.08-9.59-.19a17.51,17.51,0,0,1-6.46-1.65,6.25,6.25,0,0,1-2-1.65,7.36,7.36,0,0,1-1.23-3.72c-.32-3.43-.12-7-.14-10.4l-.07-11.44-.14-22.39-.13-22.38c0-3.64-.1-7.28,0-10.91a32.51,32.51,0,0,1,1.13-9,16.5,16.5,0,0,1,9-10.15,28,28,0,0,1,6.44-2.1c1.24-.25,2-.38,3-.49,1.2-.13,2.4-.21,3.61-.26a117.12,117.12,0,0,1,14.74.78c7.41.64,14.85,1.11,22.28,1.41a202.55,202.55,0,0,0,22-.18c6.11-.43,12.87-1.92,18.88-.08a12,12,0,0,1,3.69,1.87,3.91,3.91,0,0,1,1.71,2.8,3,3,0,0,0,3.67,2.08,3,3,0,0,0,2.08-3.67c-.61-3.71-3.69-6.31-7-7.82a24.55,24.55,0,0,0-10.26-2c-3.39,0-6.75.36-10.12.66-3.82.34-7.66.52-11.5.58-7.85.13-15.7-.24-23.53-.75-6.39-.41-12.76-1.1-19.15-1.5-10.3-.65-22.12.25-29.83,8-4.79,4.78-6.53,11.06-6.85,17.67-.37,7.48,0,15,0,22.52l.28,47.26c0,6.76-1.12,14.95,5,19.54,4.9,3.69,11.64,3.48,17.45,3.52,15.49.08,31,.79,46.45.61,7.65-.09,15.29-.39,22.91-1.1a114.7,114.7,0,0,0,11.52-1.44,16.49,16.49,0,0,0,8.5-4c2.53-2.48,3.5-5.88,3.93-9.29.45-3.56.49-7.19.66-10.78q.54-11.53.83-23.09c.39-15.72.39-31.43.7-47.15,0-1.82,0-3.64.07-5.46a40.38,40.38,0,0,0,0-5.16,3.09,3.09,0,0,0-3-3C1547.71,161.2,1546,162.58,1546.19,164.19Z"/><path class="cls-1" d="M1529.22,156l1.57-13.11c.12-1-1-1.67-1.9-1.44a15,15,0,0,1-6.33.32l1,1.85a37,37,0,0,0,1.6-4.8c.34-1.33,1-3.14.61-4.52s-1.92-1.8-3.25-2l-5.46-1a1.52,1.52,0,0,0-1.9,1.45l.52,9.95,1.5-1.5-3.6.32a1.53,1.53,0,0,0-1.45,1.9,36,36,0,0,1,.08,13.37c-.35,1.88,2.54,2.69,2.89.79a39.83,39.83,0,0,0-.07-15l-1.45,1.9,3.6-.32a1.53,1.53,0,0,0,1.5-1.5l-.52-9.95-1.89,1.44,3.86.68,1.82.32a3.44,3.44,0,0,1,.85.15c.18.08.19-.47,0,.3a59.9,59.9,0,0,1-2.11,7.16,1.49,1.49,0,0,0,1,1.84,18.58,18.58,0,0,0,7.92-.32l-1.9-1.45L1526.22,156c-.22,1.91,2.78,1.9,3,0Z"/><path class="cls-1" d="M1486.29,154.45c1-3.3,1.92-6.63,2.65-10,.33-1.52,0-2.83-1.55-3.42s-3.38-.95-5-1.41l.89,2.21a27.62,27.62,0,0,0,1.63-4.9c.31-1.39.94-3.42.09-4.71s-2.81-1.22-4.26-1.31l-5.51-.36a1.51,1.51,0,0,0-1.44,1.9,25.25,25.25,0,0,1,1.13,10.25l2.25-1.29a9.86,9.86,0,0,0-4.81-.95c-.73,0-1.61.66-1.5,1.5a44.21,44.21,0,0,1,0,11.83,1.55,1.55,0,0,0,1,1.84,1.51,1.51,0,0,0,1.84-1,46.78,46.78,0,0,0,.15-12.62l-1.5,1.5a6.79,6.79,0,0,1,3.3.54,1.53,1.53,0,0,0,2.26-1.3,27.41,27.41,0,0,0-1.24-11l-1.45,1.9,3.81.25,1.91.12a5.3,5.3,0,0,1,1.65.11c-.3-.16-.12-.19-.22.14a6.85,6.85,0,0,0-.13.79c-.1.58-.22,1.17-.37,1.75a22.66,22.66,0,0,1-1.19,3.6,1.53,1.53,0,0,0,.9,2.21l4,1.09a7,7,0,0,0,.9.25l-.37-.42-.09.42a9.89,9.89,0,0,0-.49,2c-.63,2.6-1.34,5.18-2.11,7.74-.56,1.85,2.33,2.65,2.89.8Z"/><path class="cls-1" d="M1466.2,154.54a98.57,98.57,0,0,0,1.09-12.61,1.55,1.55,0,0,0-1.5-1.5l-4.61-.37,1.44,1.9,1.3-5c.34-1.31,1.15-3.09.55-4.43s-2-1.45-3.39-1.4l-5.67.24a1.53,1.53,0,0,0-1.45,1.9l.93,4.39.46,2.19a5.48,5.48,0,0,1,.21,1c0-.09.46-.13.19-.12-1.94,0-4-.74-5.33,1.18s-.65,4.67-.47,6.8l.77,8.86c.16,1.91,3.16,1.92,3,0l-.77-8.86a33,33,0,0,1-.3-4.09c0-1.13.39-1.17,1.44-1.05,1.92.2,4.26.14,4.45-2.37a14,14,0,0,0-.65-3.89l-1-4.88-1.45,1.9,3.94-.17,2-.08.8,0c-.3-.63-.47-.7-.5-.21-.28.29-.37,1.42-.47,1.82l-.47,1.82-1,3.64a1.52,1.52,0,0,0,1.45,1.9l4.61.37-1.5-1.5a91.46,91.46,0,0,1-1,11.81c-.29,1.89,2.6,2.7,2.89.8Z"/><path class="cls-1" d="M1507,155.77l1.68-14.39c.1-.84-.77-1.45-1.5-1.5l-3.87-.25,1.44,1.9a45.89,45.89,0,0,0,1.73-4.94c.37-1.32,1.13-3.16.49-4.5s-2.15-1.29-3.43-1.26l-5.61.09a1.52,1.52,0,0,0-1.5,1.5,37.23,37.23,0,0,1-.25,9.55l1.85-1.05c-3.19-1.28-6,1.66-6.65,4.58a31.13,31.13,0,0,0-.35,5.2l-.19,6.36c0,1.93,3,1.93,3,0,.09-2.91.15-5.82.26-8.73.06-1.66.53-5.56,3.13-4.52a1.5,1.5,0,0,0,1.84-1,39.87,39.87,0,0,0,.36-10.35l-1.5,1.5,3.74-.06,1.87,0a3.68,3.68,0,0,0,.94,0h.28c-.38-.58-.58-.65-.61-.22-.28.32-.33,1.34-.44,1.76-.16.59-.33,1.17-.52,1.75-.39,1.23-.84,2.44-1.33,3.63-.4,1,.59,1.84,1.45,1.9l3.87.25-1.5-1.5L1504,155.77c-.22,1.92,2.78,1.9,3,0Z"/><path class="cls-1" d="M1436,195.89a121.88,121.88,0,0,1-15.74-1l1.5,1.5.31-4.61a1.5,1.5,0,0,0-1.5-1.5l-3.74.4-1.87.2a5.72,5.72,0,0,0-1.87.2c-.42-.06-.43.08,0,.41l.17-.9.35-1.79.69-3.6-1.85,1,4.38,1.63c1.24.46,2.71,1.28,4.06,1.27,2.09,0,2.82-1.92,2.9-3.69,0-.2.1-1.73.14-1.71s-.43.44-.43.31l.94,0,2.4.13c3.11.18,6.22.41,9.32.67,1.93.16,1.92-2.84,0-3-3-.25-6-.48-9.08-.66-2-.11-4.85-.86-5.9,1.36a5.21,5.21,0,0,0-.37,2.1c0,.43.07,1.38-.17,1.63.33-.35-.44-.38-.82-.52l-2.19-.81-4.38-1.63a1.52,1.52,0,0,0-1.85,1.05l-1,5.17c-.25,1.32-.73,2.92.48,3.93s2.77.52,4.11.38l5.61-.6-1.5-1.5-.31,4.61a1.53,1.53,0,0,0,1.5,1.5,121.88,121.88,0,0,0,15.74,1,1.5,1.5,0,0,0,0-3Z"/><path class="cls-1" d="M1436.14,202.91l-11.81.76a8.29,8.29,0,0,0-4.21,1,2.83,2.83,0,0,0-1.32,3.36l1.45-1.9c-2.67,0-5.45-.28-8.11-.07s-2.54,3.12-2.72,5.21a5.42,5.42,0,0,0,.27,3.09,3.08,3.08,0,0,0,2.56,1.4c2.85.31,5.71.51,8.57.77l-1.06-2.56a3.24,3.24,0,0,0-.36,4.05c.91,1.49,2.68,1.86,4.29,2,4.13.4,8.3.63,12.44,1,1.93.15,1.92-2.85,0-3l-8.19-.63c-1.29-.09-2.58-.18-3.86-.29-.24,0-2.76-.4-2.2-1a1.52,1.52,0,0,0-1.06-2.56l-5.68-.51a10.94,10.94,0,0,0-2.72-.25c-.28-.1-.34-.09-.18,0s.15.09.08-.22a6.47,6.47,0,0,0,.1-1.32l.13-1.47a4.18,4.18,0,0,0,.1-1.06c.06-.23,0-.13-.16.32h.48a5.09,5.09,0,0,0,1.46,0l5.82.06a1.51,1.51,0,0,0,1.45-1.9c-.09-.24,0,0-.1.06a1.59,1.59,0,0,1,.55-.32,4.24,4.24,0,0,1,1.21-.27c1.44-.15,2.9-.18,4.34-.28l8.44-.54c1.92-.12,1.94-3.12,0-3Z"/><path class="cls-1" d="M1435.47,225.1c-2.06,1-4.74.41-6.87,0a46.63,46.63,0,0,0-7.39-1.36,1.53,1.53,0,0,0-1.5,1.5l-.4,4,1.9-1.45a22.11,22.11,0,0,0-10.8-.77,1.51,1.51,0,0,0-1.1,1.45c0,2.07,0,4.16.12,6.23.09,1.49.76,2.73,2.39,2.88a38.13,38.13,0,0,0,5.73-.38,9.86,9.86,0,0,1,4.19.14c1.42.53.78,2,1.1,3.2A3.66,3.66,0,0,0,1426,243a16.52,16.52,0,0,0,4.65-.31l6.14-.82a1.55,1.55,0,0,0,1.5-1.5,1.5,1.5,0,0,0-1.5-1.5l-5.19.69a32,32,0,0,1-4.57.53c-.46,0-1,0-1.24-.44s0-1.49-.13-2a4,4,0,0,0-2-2.84c-2.38-1.31-5.4-.73-8-.54l-2.68.2-.48,0c-.43-.06-.44,0,0,.34,0-.31,0-.63,0-.94l-.1-5.51-1.1,1.44a19.07,19.07,0,0,1,9.21.77,1.51,1.51,0,0,0,1.89-1.44l.4-4-1.5,1.5c5.16.26,10.75,3.55,15.78,1,1.72-.87.2-3.46-1.52-2.59Z"/><path class="cls-1" d="M1550.31,177.25l13.15-1.24-1.45-1.9a18.55,18.55,0,0,0-.5,7.91,1.51,1.51,0,0,0,1.85,1,27,27,0,0,1,7.21-1.94c.2,0,.37,0,.24-.13.12.15.1.61.13.79l.27,1.82.62,4.11,1.44-1.89-9.93-.77a1.54,1.54,0,0,0-1.5,1.5l-.41,3.6,1.9-1.45a40.05,40.05,0,0,0-15-.42c-1.9.3-1.09,3.19.8,2.89a36.17,36.17,0,0,1,13.36.42,1.53,1.53,0,0,0,1.9-1.44l.41-3.6-1.5,1.5,9.93.77c1.08.08,1.58-1,1.45-1.9l-.78-5.25c-.22-1.43-.4-3-2-3.51-1.29-.38-3.06.2-4.32.48a35.81,35.81,0,0,0-5,1.53l1.85,1a15,15,0,0,1,.49-6.31,1.51,1.51,0,0,0-1.44-1.9l-13.15,1.24c-1.9.18-1.92,3.18,0,3Z"/><path class="cls-1" d="M1551.65,220.12c2.58-.71,5.18-1.36,7.79-1.93q.93-.21,1.86-.39l.41-.09c.38,0,.3-.15-.23-.38a4.81,4.81,0,0,0,.18.7c.36,1.42.7,2.83,1,4.25a1.52,1.52,0,0,0,1.85,1.05,25.14,25.14,0,0,1,3.41-1.11c.64-.16,1.29-.3,2-.4l.78-.12c.09,0,1-.17.61-.2-.1-.19-.14-.19-.1,0s0,.24,0,.36c0,.35,0,.7,0,1.06l.08,1.91.16,4,1.9-1.44a27.33,27.33,0,0,0-11-1.5,1.53,1.53,0,0,0-1.3,2.26,6.81,6.81,0,0,1,.44,3.31l1.9-1.44a46.8,46.8,0,0,0-12.62-.26,1.55,1.55,0,0,0-1.5,1.5,1.5,1.5,0,0,0,1.5,1.5,43.72,43.72,0,0,1,11.82.15,1.53,1.53,0,0,0,1.9-1.45,10,10,0,0,0-.84-4.83l-1.3,2.26a25,25,0,0,1,10.22,1.39,1.51,1.51,0,0,0,1.9-1.45l-.22-5.51c-.06-1.4.14-3.18-1.09-4.15s-3.09-.45-4.47-.2a26,26,0,0,0-5,1.44l1.84,1c-.4-1.63-.69-3.35-1.22-4.94s-1.87-2-3.46-1.72c-3.39.64-6.75,1.49-10.07,2.4a1.51,1.51,0,0,0,.8,2.9Z"/><path class="cls-1" d="M1550.67,240.25a96.17,96.17,0,0,1,12.23-.74l-1.5-1.5.26,4.62a1.52,1.52,0,0,0,1.9,1.45l3.66-.86,1.83-.43c.32-.07,1.65-.18,1.83-.42.4,0,.32-.18-.22-.46,0,.26,0,.53-.05.79,0,.66-.09,1.32-.13,2l-.26,3.94,1.9-1.45-4.61-1.09a17.87,17.87,0,0,0-4-.8c-2.58,0-2.78,2.43-2.61,4.39.08,1,.12,1.36-1,1.42a24.51,24.51,0,0,1-4-.38l-9.08-1c-1.92-.21-1.9,2.79,0,3l8.6,1c2.18.24,5,1,7-.26a3.32,3.32,0,0,0,1.42-2.47c.11-.91-.25-1.86-.11-2.75.05-.31,0,0-.08,0-.2.08.67.25.78.27l2.18.52,4.61,1.09a1.53,1.53,0,0,0,1.9-1.45l.36-5.41c.09-1.39.2-3-1.33-3.66-1.31-.56-2.93.11-4.22.42l-5.27,1.23,1.9,1.44-.26-4.62a1.54,1.54,0,0,0-1.5-1.5,96.17,96.17,0,0,0-12.23.74c-1.89.24-1.91,3.24,0,3Z"/><path class="cls-1" d="M1550,199.46l14.43-1.33-1.5-1.5.16,3.88A1.51,1.51,0,0,0,1565,202c1.13-.43,2.28-.83,3.44-1.18.58-.17,1.17-.33,1.76-.48a7.24,7.24,0,0,0,2-.45c.31,0,.31-.1,0-.31s-.26-.37-.23-.12,0,.66,0,.84l-.07,1.87-.17,4,1.5-1.5a39.85,39.85,0,0,0-10.35.11,1.5,1.5,0,0,0-1,1.84c1,2.62-3,3-4.65,3-2.9,0-5.81,0-8.72,0a1.5,1.5,0,0,0,0,3l6.11,0a31.12,31.12,0,0,0,5.46-.24c2.94-.55,5.89-3.32,4.69-6.55l-1,1.84a36.78,36.78,0,0,1,9.55,0c.83.1,1.47-.78,1.5-1.5l.23-5.38c0-1.33.22-3-1.21-3.67-1.27-.63-3,0-4.29.35a43.06,43.06,0,0,0-5.2,1.66l1.9,1.45-.16-3.88a1.5,1.5,0,0,0-1.5-1.5L1550,196.46c-1.91.17-1.92,3.17,0,3Z"/><path class="cls-1" d="M1508.8,271.11c.71,2.58,1.36,5.18,1.93,7.79q.21.93.39,1.86l.09.42c0,.37.14.29.38-.23a5.28,5.28,0,0,0-.71.18l-4.24,1a1.52,1.52,0,0,0-1.05,1.85,25.61,25.61,0,0,1,1.11,3.41c.16.64.3,1.3.4,1.95.05.26.09.52.12.79,0,.09.17,1,.2.6.19-.1.19-.13,0-.1l-.36,0-1.06,0-1.91.08-4,.17,1.44,1.89a27.33,27.33,0,0,0,1.5-11,1.53,1.53,0,0,0-2.26-1.29,6.8,6.8,0,0,1-3.31.43l1.44,1.9a46.79,46.79,0,0,0,.26-12.62,1.55,1.55,0,0,0-1.5-1.5,1.5,1.5,0,0,0-1.5,1.5,43.72,43.72,0,0,1-.15,11.82,1.53,1.53,0,0,0,1.45,1.9,9.9,9.9,0,0,0,4.83-.84l-2.26-1.3a25.07,25.07,0,0,1-1.39,10.23,1.51,1.51,0,0,0,1.45,1.9l5.51-.23c1.4-.05,3.18.14,4.15-1.08s.45-3.1.2-4.48a26.16,26.16,0,0,0-1.44-5l-1,1.85c1.63-.41,3.35-.7,4.94-1.23s2-1.87,1.72-3.46c-.64-3.39-1.49-6.74-2.4-10.06a1.5,1.5,0,0,0-2.9.79Z"/><path class="cls-1" d="M1529.05,266.88c.69,5.76,1.66,11.49,2.36,17.26l1.5-1.5-3.87.26c-.86.06-1.85.93-1.45,1.9s.9,2.25,1.27,3.41c.19.58.37,1.16.53,1.74s.22,1.68.51,2q0,.46.33,0c.35-.18.4-.26.14-.23-.11-.09-.69,0-.84,0l-1.87,0-4-.06,1.5,1.5a39.78,39.78,0,0,0-.38-10.34,1.51,1.51,0,0,0-1.85-1c-2.59,1-3.08-2.84-3.14-4.51-.12-2.9-.19-5.81-.28-8.72-.06-1.93-3.06-1.94-3,0l.19,6.11a32,32,0,0,0,.38,5.45c.62,2.91,3.46,5.85,6.65,4.56l-1.84-1.05a37.23,37.23,0,0,1,.27,9.55,1.51,1.51,0,0,0,1.5,1.5l5.38.08c1.33,0,3,.16,3.66-1.27s-.08-3-.43-4.28a46.92,46.92,0,0,0-1.81-5.15l-1.44,1.9,3.87-.26c.73-.05,1.6-.65,1.5-1.5-.7-5.77-1.67-11.5-2.36-17.26-.23-1.9-3.23-1.92-3,0Z"/><path class="cls-1" d="M1464.27,269.29a123.84,123.84,0,0,1-.81,15.75l1.5-1.5-4.62-.25a1.5,1.5,0,0,0-1.5,1.5l.45,3.73.23,1.87a10.24,10.24,0,0,0,.24,2c.07.21-.11.62.22.14s-.08-.28-.48-.35l-1.8-.32-3.83-.68,1,1.85,1.57-4.41c.44-1.24,1.24-2.72,1.22-4.07,0-2.09-1.92-2.8-3.69-2.87a7.66,7.66,0,0,1-1.67-.09,1.12,1.12,0,0,1,.21.23,4.7,4.7,0,0,0,0-1c0-.72.05-1.44.09-2.16.13-3.11.32-6.22.54-9.33.14-1.93-2.86-1.92-3,0-.21,2.95-.39,5.9-.52,8.85-.09,1.93-.85,5,1.27,6.07a4.91,4.91,0,0,0,2.24.41c.44,0,1.28-.1,1.61.12-.1-.07-.1-.31-.16-.07s-.2.61-.3.9l-.78,2.21-1.57,4.4a1.52,1.52,0,0,0,1,1.85l5.19.91c1.32.24,2.92.7,3.92-.51s.5-2.77.34-4.11l-.68-5.6-1.5,1.5,4.62.25a1.54,1.54,0,0,0,1.5-1.5,123.84,123.84,0,0,0,.81-15.75c0-1.93-3-1.94-3,0Z"/><path class="cls-1" d="M1472.29,269l.92,11.81a8.29,8.29,0,0,0,1.08,4.19,2.83,2.83,0,0,0,3.37,1.3l-1.9-1.45c0,2.67-.19,5.45,0,8.11s3.13,2.51,5.22,2.66a5.33,5.33,0,0,0,3.09-.29,3.07,3.07,0,0,0,1.38-2.58c.29-2.84.44-5.71.65-8.57l-2.56,1.06a3.27,3.27,0,0,0,4.06.33c1.48-.92,1.84-2.7,2-4.31.35-4.14.53-8.3.79-12.45.12-1.93-2.88-1.93-3,0l-.52,8.2c-.08,1.29-.15,2.58-.24,3.86,0,.2-.37,2.78-.94,2.25a1.52,1.52,0,0,0-2.56,1.06l-.43,5.69a10,10,0,0,0-.2,2.71c-.1.28-.09.35,0,.2s.1-.14-.21-.07a7.37,7.37,0,0,0-1.33-.09l-1.47-.1a4.68,4.68,0,0,0-1.06-.09q-.35-.06.3.18v-.48a5.5,5.5,0,0,0,0-1.46l0-5.82a1.51,1.51,0,0,0-1.9-1.45c-.5.2,0,0,.06.12a4.42,4.42,0,0,1-.34-.54,4,4,0,0,1-.29-1.21c-.18-1.43-.23-2.9-.34-4.34l-.66-8.43c-.15-1.91-3.15-1.93-3,0Z"/><path class="cls-1" d="M1535.68,173.66a63.62,63.62,0,0,1,0,8.05c-.06,3-.1,6-.13,9.08q-.09,8.9-.22,17.81c-.18,11.94-.51,23.89-1.18,35.82-.12,2.1-.22,4.5-1.46,6.29s-3.47,2.28-5.43,2.67a119.83,119.83,0,0,1-17,1.59c-11.79.55-23.6.18-35.4-.07q-4.39-.09-8.78-.14c-2.56,0-5.14.06-7.69-.15a12.82,12.82,0,0,1-5.37-1.4c-1.89-1.09-2.5-2.91-2.6-5-.3-5.85-.1-11.76-.14-17.62l-.1-17.87-.11-17.87c0-5.21-.64-10.91,1-15.94,2.56-7.66,11.14-9.88,18.34-10.07,4-.1,8,.41,12,.7,5.85.43,11.7.87,17.56,1.1a160.72,160.72,0,0,0,17.56-.19c4.84-.35,10.18-1.5,14.93,0,1.91.6,4,1.71,4.37,3.82a2.27,2.27,0,0,0,2.76,1.58,2.3,2.3,0,0,0,1.57-2.77c-.95-5.65-7.95-7.61-12.83-7.78a59.27,59.27,0,0,0-7.88.41c-3.08.3-6.17.48-9.25.55-11.63.27-23.16-.94-34.74-1.75-8.17-.57-17.4,0-23.8,5.72-3.93,3.53-5.6,8.38-6,13.54-.48,6.05-.1,12.23-.06,18.29l.23,38c0,3-.15,6.07.14,9.05a10,10,0,0,0,3.26,7c3.75,3.14,9,3.19,13.67,3.2,12.54,0,25.06.64,37.6.51,6.17-.06,12.35-.3,18.5-.86,3-.27,6.1-.55,9.1-1.1a13.86,13.86,0,0,0,7-3c4.16-3.77,3.57-10.67,3.81-15.76q.45-9.37.69-18.75c.31-12.67.31-25.35.56-38a65.8,65.8,0,0,0,0-8.54,2.31,2.31,0,0,0-2.25-2.25A2.27,2.27,0,0,0,1535.68,173.66Z"/><path class="cls-1" d="M1604.14,232.2c-.27,3.89.07,7.91.13,11.82l.16,11.39c0,2.76.16,5.53,0,8.28-.11,2-.25,3.93-.22,5.9.06,4.13.83,9.31,5.22,11a13.69,13.69,0,0,0,3.65.62c2,.18,4,.26,5.93.29,4,.05,7.91,0,11.87,0,7.59,0,15.18.1,22.77-.18,3.34-.13,7.22-.51,7.89-4.55a33.92,33.92,0,0,0,.15-5.24l0-6,.09-23.49c0-3.27.38-6.85-1-9.91s-4.49-4.5-7.75-4.89a100,100,0,0,0-11.87-.22q-6.46,0-13,.16t-12.94.42c-2.15.09-4.32.15-6.47.31s-4.22,1.21-4.61,3.66a2.52,2.52,0,0,0,1.71,3,2.46,2.46,0,0,0,3-1.71c.13-.81,0,0-.28,0l.66,0c.91,0,1.83-.09,2.74-.13,1.82-.09,3.65-.17,5.47-.24q5.35-.21,10.7-.33,10.47-.24,20.92-.12c2,0,5-.26,6.61,1.32s1.14,5.13,1.13,7.25l-.08,21.24,0,10.75c0,.83,0,1.67,0,2.5,0,.23,0,.49,0,.73s-.29.53,0,.23c-.63.58-2.34.39-3.14.42-6.93.26-13.86.21-20.79.19s-14.08.43-21-.42c-.78-.1.42.13-.3-.05L1611,276c-.38-.13.49.25-.08-.05-.09-.05-.59-.44-.17-.08-.15-.13-.7-.83-.43-.42a3.13,3.13,0,0,1-.22-.36c0-.08-.42-.87-.23-.4a11.79,11.79,0,0,1-.78-4.8c-.05-2,.09-4,.21-6.05.15-2.64.05-5.27,0-7.91l-.18-11.88c-.05-3.91-.39-7.93-.12-11.82a2.48,2.48,0,0,0-2.45-2.46A2.5,2.5,0,0,0,1604.14,232.2Z"/><path class="cls-1" d="M1610.13,147c-.09,2.59.06,5.21.1,7.8,0,1.45-.16,2.94,0,4.38.14,2,.91,4.05,3,4.63a13.92,13.92,0,0,0,3.53.28c1.4,0,2.8,0,4.21,0a64.93,64.93,0,0,0,7.25-.12,3.39,3.39,0,0,0,3.21-2.67,23.4,23.4,0,0,0,.11-4.51l0-7.49a6.29,6.29,0,0,0-.77-3.57,4.78,4.78,0,0,0-3.85-2,76.22,76.22,0,0,0-8.14,0q-2.1,0-4.2.15a6.59,6.59,0,0,0-2.79.43,2.87,2.87,0,0,0-1.57,2,2.52,2.52,0,0,0,1.71,3,2.47,2.47,0,0,0,3-1.71l-.68.91-1.24.34c2.06-.22,4.17-.21,6.23-.26s4.09-.06,6.14,0l1.28,0c.72,0-.24-.07.17,0s-.22-.31.15,0a3.16,3.16,0,0,1-.44-.54l.06.23c0-.2,0-.21,0,0,0,.53,0,1.07,0,1.6l0,6.19V160c-.08.87.31.56,1.15-.94,0,0,.61,0,0,0l-1,0c-2.06.07-4.12,0-6.18,0a60,60,0,0,1-6.29-.12c-.49,0,.45.13.52.16-.19-.09-.2-.22.17.15s.24.35.14.18c-.23-.41,0,.41,0,.11s-.12-.82-.08-.22c0-.32,0-.64,0-1,0-1.45.09-2.88.07-4.33,0-2.38-.18-4.78-.09-7.15a2.46,2.46,0,1,0-4.91,0Z"/><path class="cls-1" d="M1610.13,173.67c-.09,2.59.06,5.21.1,7.81,0,1.45-.16,2.93,0,4.38.14,2,.91,4,3,4.63a14.4,14.4,0,0,0,3.53.28c1.4,0,2.8,0,4.21,0a64.93,64.93,0,0,0,7.25-.12,3.4,3.4,0,0,0,3.21-2.68,23.29,23.29,0,0,0,.11-4.5l0-7.5a6.31,6.31,0,0,0-.77-3.57,4.77,4.77,0,0,0-3.85-2,73.68,73.68,0,0,0-8.14,0l-4.2.15a6.92,6.92,0,0,0-2.79.43,2.89,2.89,0,0,0-1.57,2,2.52,2.52,0,0,0,1.71,3,2.48,2.48,0,0,0,3-1.72l-.68.92-1.24.33c2.06-.22,4.17-.2,6.23-.25s4.09-.06,6.14,0l1.28,0c.72,0-.24-.07.17,0s-.22-.32.15.05a3.66,3.66,0,0,1-.44-.55l.06.24c0-.2,0-.22,0,0,0,.53,0,1.08,0,1.61l0,6.19v3.91c-.08.87.31.55,1.15-.95,0,0,.61,0,0,0l-1,0c-2.06.06-4.12,0-6.18,0a62.82,62.82,0,0,1-6.29-.13c-.49,0,.45.14.52.17-.19-.1-.2-.22.17.15s.24.34.14.17c-.23-.4,0,.42,0,.12s-.12-.83-.08-.22c0-.33,0-.64,0-1,0-1.44.09-2.88.07-4.33,0-2.37-.18-4.78-.09-7.15a2.46,2.46,0,0,0-4.91,0Z"/><path class="cls-1" d="M1634.6,173.67c-.09,2.59.07,5.21.1,7.81,0,1.45-.16,2.93,0,4.38.14,2,.91,4,3,4.63a14.28,14.28,0,0,0,3.52.28c1.4,0,2.81,0,4.21,0a64.93,64.93,0,0,0,7.25-.12,3.4,3.4,0,0,0,3.21-2.68,21.8,21.8,0,0,0,.11-4.5l0-7.5a6.23,6.23,0,0,0-.77-3.57,4.77,4.77,0,0,0-3.85-2,73.68,73.68,0,0,0-8.14,0l-4.2.15a6.85,6.85,0,0,0-2.78.43,2.9,2.9,0,0,0-1.58,2,2.52,2.52,0,0,0,1.72,3,2.47,2.47,0,0,0,3-1.72l-.68.92-1.23.33c2-.22,4.16-.2,6.22-.25s4.1-.06,6.14,0l1.28,0c.73,0-.23-.07.17,0s-.21-.32.15.05a4.42,4.42,0,0,1-.44-.55l.07.24c0-.2,0-.22,0,0,0,.53,0,1.08,0,1.61l0,6.19,0,2.93v1c-.08.87.31.55,1.15-.95,0,0,.61,0,0,0l-1,0c-2.06.06-4.11,0-6.17,0s-4.21.09-6.3-.13c-.49,0,.45.14.52.17-.18-.1-.19-.22.17.15s.24.34.14.17c-.22-.4.05.42.05.12s-.13-.83-.09-.22c0-.33,0-.64,0-1,0-1.44.08-2.88.06-4.33,0-2.37-.18-4.78-.09-7.15a2.46,2.46,0,0,0-4.91,0Z"/><path class="cls-1" d="M1634.6,147c-.09,2.59.07,5.21.1,7.8,0,1.45-.16,2.94,0,4.38.14,2,.91,4.05,3,4.63a13.81,13.81,0,0,0,3.52.28c1.4,0,2.81,0,4.21,0a64.93,64.93,0,0,0,7.25-.12,3.39,3.39,0,0,0,3.21-2.67,21.9,21.9,0,0,0,.11-4.51l0-7.49a6.21,6.21,0,0,0-.77-3.57,4.78,4.78,0,0,0-3.85-2,76.22,76.22,0,0,0-8.14,0q-2.1,0-4.2.15a6.52,6.52,0,0,0-2.78.43,2.89,2.89,0,0,0-1.58,2,2.52,2.52,0,0,0,1.72,3,2.46,2.46,0,0,0,3-1.71l-.68.91-1.23.34c2-.22,4.16-.21,6.22-.26s4.1-.06,6.14,0l1.28,0c.73,0-.23-.07.17,0s-.21-.31.15,0a3.71,3.71,0,0,1-.44-.54l.07.23c0-.2,0-.21,0,0,0,.53,0,1.07,0,1.6l0,6.19,0,2.94v1c-.08.87.31.56,1.15-.94,0,0,.61,0,0,0l-1,0c-2.06.07-4.11,0-6.17,0a60.16,60.16,0,0,1-6.3-.12c-.49,0,.45.13.52.16-.18-.09-.19-.22.17.15s.24.35.14.18c-.22-.41.05.41.05.11s-.13-.82-.09-.22c0-.32,0-.64,0-1,0-1.45.08-2.88.06-4.33,0-2.38-.18-4.78-.09-7.15a2.46,2.46,0,1,0-4.91,0Z"/><path class="cls-1" d="M1767.8,283.3c-.17-.22.14.23.17.27a5.36,5.36,0,0,1,.28.53c-.13-.28.08.28.08.28.06.19.1.38.15.58.13.53,0-.28,0,.27,0,.2,0,.4,0,.6s0,.41,0,.61c0,.4,0-.12,0,.3a7.8,7.8,0,0,1-1.91,3.85c-2.57,2.71-6.48,3.64-10,4.55-2.43.63-1.4,4.39,1,3.76,4.37-1.13,9.32-2.49,12.26-6.19,2.81-3.52,3.6-8.47.69-12.17a2,2,0,0,0-2.76,0,2,2,0,0,0,0,2.76Z"/><path class="cls-1" d="M1760.4,282.51c0,.07-.08.88-.05.9s.08-.49,0,0c0,.12,0,.25-.08.37a8.47,8.47,0,0,1-.25.86,1.63,1.63,0,0,1-.13.36c.11-.25.13-.31.07-.17s0,.12-.08.17a10.89,10.89,0,0,1-.85,1.44c-.23.35.24-.28,0,0l-.29.34a8.21,8.21,0,0,1-.58.6c-.12.11-.44.51-.59.51.23-.17.26-.19.09-.07l-.16.12-.37.25c-.22.14-.44.27-.67.39l-.4.19c-.46.21.3-.1-.07,0a12.66,12.66,0,0,1-1.6.45c-.38.07.44,0,0,0l-.39,0c-.3,0-.6,0-.9,0a2,2,0,0,0-1.95,2,2,2,0,0,0,1.95,1.95,11,11,0,0,0,11.19-10.67,2,2,0,0,0-3.9,0Z"/></g><path class="cls-1" d="M1024.71,214.61a1.17,1.17,0,0,1-.56-1,2,2,0,0,1,.44-1.24q-.16-4-.16-8.44a2.24,2.24,0,0,1,2.2-2q5.28.24,11.44.24c1,.21,1.52.65,1.52,1.32,0,1.12-1.09,1.77-3.28,2-.59,0-1.23,0-1.92,0h-2.6c-.51,0-1.91-.11-4.2-.32,0,3.33.05,5.63.16,6.88q2.12,0,8.16,0c1,.19,1.44.62,1.44,1.3a1.74,1.74,0,0,1-1.16,1.58,1.59,1.59,0,0,1-.44.16l-6.92-.12a5.78,5.78,0,0,0-1,.08L1028,222a31.66,31.66,0,0,1-.12,3.32l9.28-.12c.85.13,1.28.49,1.28,1.08a1.81,1.81,0,0,1-.54,1.2,2.38,2.38,0,0,1-1.26.76l-10.24.16a1.85,1.85,0,0,1-1.28-.34,1.53,1.53,0,0,1-.36-1.14,27.91,27.91,0,0,0,.16-3.6v-2.8Z"/><path class="cls-1" d="M1050.83,201.89a10,10,0,0,1,4.42.88c1.21.59,1.82,1.33,1.82,2.24a1.79,1.79,0,0,1-.3,1,1,1,0,0,1-.88.44,8.23,8.23,0,0,1-2.5-.9,8.36,8.36,0,0,0-3.5-.9,6.35,6.35,0,0,0-3.26,1,2.87,2.87,0,0,0-1.68,2.44,3,3,0,0,0,2,2.88,20.77,20.77,0,0,0,4.36,1.22,9.2,9.2,0,0,1,4.64,2.2,6.51,6.51,0,0,1,1.8,5q0,5.12-3.08,7.56a7.66,7.66,0,0,1-4.86,1.36,12.83,12.83,0,0,1-6.26-1.72q-2-1.08-2-2.16a1.53,1.53,0,0,1,.34-.88,2.65,2.65,0,0,1,.94-.8,1.22,1.22,0,0,1,1.1-.1l1.62.78c.75.37,1.29.63,1.64.76a8.81,8.81,0,0,0,3.16.64,4,4,0,0,0,2.86-1.46,5,5,0,0,0,1.38-3.58,4,4,0,0,0-2.8-3.92,14.36,14.36,0,0,0-3.08-.84,11.56,11.56,0,0,1-5.36-2.14,5.57,5.57,0,0,1-1.8-4.54,5.46,5.46,0,0,1,2.6-4.78A11.78,11.78,0,0,1,1050.83,201.89Z"/><path class="cls-1" d="M1060.83,224.29q-.28-4.12-.28-11.14t.2-9.1a2.1,2.1,0,0,1,1.76-1.7,16.35,16.35,0,0,1,4.12-.42,11.69,11.69,0,0,1,6.34,1.62,5.29,5.29,0,0,1,2.58,4.78,11.41,11.41,0,0,1-.72,4.34,6.17,6.17,0,0,1-1.8,2.58,8.38,8.38,0,0,1-5.2,1.36,24.29,24.29,0,0,1-3.88-.4c.13,5.33.19,8.69.16,10.08s-.49,2.08-1.4,2.08c-.59,0-1-.11-1.12-.32a4.59,4.59,0,0,1-.32-.46,1.85,1.85,0,0,1-.16-.42l-.12-.46a2.9,2.9,0,0,1-.06-.54,3.28,3.28,0,0,0-.06-.56C1060.84,225.21,1060.83,224.77,1060.83,224.29Zm11.4-15.86a2.86,2.86,0,0,0-1.76-2.56,7.83,7.83,0,0,0-3.76-.94,7.56,7.56,0,0,0-2.8.36c-.11,1.57-.16,3-.16,4.34a35.29,35.29,0,0,0,.16,3.58c.72.08,1.21.15,1.48.2a15.88,15.88,0,0,0,1.78.12l1,0c.17,0,.51,0,1-.12a2.38,2.38,0,0,0,1.06-.34c.21-.16.48-.37.8-.64a2.21,2.21,0,0,0,.68-.92A8.86,8.86,0,0,0,1072.23,208.43Z"/><path class="cls-1" d="M1095.71,205a6.16,6.16,0,0,0-4.4,2,1.77,1.77,0,0,1-1,.4,3.34,3.34,0,0,1-.76-.08,1.21,1.21,0,0,1-.92-1.28c0-1.09.69-2.05,2.08-2.88a9.42,9.42,0,0,1,4.92-1.24,7.43,7.43,0,0,1,4.74,1.5,4.73,4.73,0,0,1,1.9,3.9,12.68,12.68,0,0,1-.54,4,4.86,4.86,0,0,1-2.34,2.64q4.24,1.61,4.24,5.76a9.16,9.16,0,0,1-2.12,6.06,6.52,6.52,0,0,1-5.18,2.54,9.92,9.92,0,0,1-5.38-1.46c-1.55-1-2.32-2.07-2.32-3.3a1.39,1.39,0,0,1,.4-.84,1.42,1.42,0,0,1,1.16-.48,2.69,2.69,0,0,1,1.64.7,21.63,21.63,0,0,0,2,1.4,4.64,4.64,0,0,0,2.52.7q4,0,4-5A3.89,3.89,0,0,0,1099,217a6,6,0,0,0-3.9-1.22c-.35,0-.61-.05-.78-.08a1.8,1.8,0,0,1-.68-.36,1.18,1.18,0,0,1-.42-1c0-1,.53-1.48,1.6-1.56a4.33,4.33,0,0,0,2.86-1.44,4.62,4.62,0,0,0,1.26-3.32,2.84,2.84,0,0,0-1-2.06A3.09,3.09,0,0,0,1095.71,205Z"/><path class="cls-1" d="M1116.63,228.45l-5.88-.08h-.8c-2.64,0-4-.51-4-1.52a5.19,5.19,0,0,1,.4-2,7.08,7.08,0,0,1,.76-1.44,21.24,21.24,0,0,1,1.44-1.6q1.08-1.12,1.56-1.68c.32-.37,1.29-1.32,2.9-2.84a24.54,24.54,0,0,0,3.64-4.12,6.94,6.94,0,0,0,1.22-3.88q0-3.17-2.52-4.08a4.64,4.64,0,0,0-1.48-.24,5.28,5.28,0,0,0-3.44,1.48,2.06,2.06,0,0,1-1.44.64,2,2,0,0,1-.44,0,1.26,1.26,0,0,1-1-1.4c0-1,.73-1.91,2.2-2.6a11.79,11.79,0,0,1,5.14-1.12,5.8,5.8,0,0,1,4.56,2,7.31,7.31,0,0,1,1.78,5,10.94,10.94,0,0,1-2.64,7.36c-.83,1-1.67,1.85-2.52,2.68a43,43,0,0,0-5.4,5.84c1.2.08,2.69.12,4.46.12s4-.11,6.58-.32a1.73,1.73,0,0,1,1,.54,1.38,1.38,0,0,1,.38.94,1.9,1.9,0,0,1-1.44,1.88A18.06,18.06,0,0,1,1116.63,228.45Z"/><path class="cls-1" d="M1025.34,112.55a117.6,117.6,0,0,0,2,29.13c.55,2.84,4.89,1.63,4.34-1.2a112.29,112.29,0,0,1-1.84-27.93c.16-2.89-4.34-2.88-4.5,0Z"/></g></svg>
